<svg width="100" height="60" viewBox="0 0 100 60" fill="none" xmlns="http://www.w3.org/2000/svg">
<g clip-path="url(#clip0_10_7)">
<mask id="mask0_10_7" style="mask-type:luminance" maskUnits="userSpaceOnUse" x="-1" y="0" width="101" height="33">
<path d="M-0.201385 0.146973H99.7986V32.7711H-0.201385V0.146973Z" fill="white"/>
</mask>
<g mask="url(#mask0_10_7)">
<path fill-rule="evenodd" clip-rule="evenodd" d="M79.8125 31.7279C86.4745 25.641 93.1366 19.5519 99.7986 13.4627C69.7755 8.91079 39.0833 13.8143 7.68982 28.6465C29.7454 21.0776 52.1204 14.8115 76.8982 18.4237C48.1319 17.1851 23.7384 24.4944 -0.201385 32.6953C23.7847 25.4273 47.713 19.2532 71.1644 22.0013C62.8032 22.1806 54.5602 22.7734 46.7338 24.8506C58.1713 24.4163 69.2361 26.4407 79.8125 31.7279ZM29.8194 18.2146C45.3773 11.204 60.9815 7.69526 76.6528 9.30601C72.3866 6.27292 68.1204 3.23753 63.8542 0.202148C50.6898 4.90114 38.507 10.3033 29.8194 18.2146ZM12.7407 31.2683C32.5787 26.4039 51.4792 24.4324 67.6713 30.8524C49.8333 26.9002 31.3426 28.5914 12.7407 31.2683Z" fill="#333333"/>
</g>
<path d="M20.4552 41.4358C19.3024 41.4358 18.6705 42.0516 18.6705 43.2097V46.1141C18.6705 46.3485 18.7816 46.4955 19.0061 46.5691L21.9436 47.5295V49.1679C21.9436 49.4988 21.77 49.6596 21.4482 49.6596H20.8533C20.5432 49.6596 20.3557 49.4988 20.3557 49.1679V48.2189C20.3557 48.0833 20.2955 48.0213 20.1589 48.0213H18.8695C18.7445 48.0213 18.6705 48.0833 18.6705 48.2189V49.5125C18.6705 50.6683 19.3024 51.2841 20.4552 51.2841H21.8441C23.0107 51.2841 23.6311 50.6683 23.6311 49.5125V46.6679C23.6311 46.4335 23.52 46.2979 23.307 46.2129L20.3557 45.2524V43.5544C20.3557 43.2327 20.5432 43.0603 20.8533 43.0603H21.4482C21.7839 43.0603 21.9436 43.2327 21.9436 43.5544V44.5148C21.9436 44.6366 22.0177 44.7101 22.1427 44.7101H23.432C23.5686 44.7101 23.6311 44.6366 23.6311 44.5148V43.2097C23.6311 42.0516 23.0107 41.4358 21.8441 41.4358H20.4552Z" fill="#333333"/>
<path d="M31.8022 51.2841C31.9504 51.2841 32.0013 51.2106 31.9759 51.075L29.918 41.6081C29.8925 41.4863 29.8184 41.4358 29.7073 41.4358H27.9828C27.8717 41.4358 27.7976 41.4863 27.7722 41.6081L25.7143 51.075C25.6772 51.2106 25.7374 51.2841 25.874 51.2841H27.2027C27.3138 51.2841 27.3763 51.2221 27.3995 51.1118L27.7351 49.3149H29.9411L30.2884 51.1118C30.3138 51.2221 30.3763 51.2841 30.4874 51.2841H31.8022ZM29.6333 47.8857H28.0453L28.8393 43.5911L29.6333 47.8857Z" fill="#333333"/>
<path d="M37.8546 41.4358C37.718 41.4358 37.6555 41.5093 37.6555 41.6334V46.8287H37.5815L35.6949 41.5966C35.6579 41.4863 35.5838 41.4358 35.4727 41.4358H34.2458C34.1208 41.4358 34.0468 41.5093 34.0468 41.6334V51.0865C34.0468 51.2106 34.1208 51.2841 34.2458 51.2841H35.5352C35.6718 51.2841 35.7319 51.2106 35.7319 51.0865V45.8682H35.7944L37.6926 51.1233C37.7296 51.2359 37.8037 51.2841 37.9148 51.2841H39.144C39.2667 51.2841 39.3407 51.2106 39.3407 51.0865V41.6334C39.3407 41.5093 39.2667 41.4358 39.144 41.4358H37.8546Z" fill="#333333"/>
<path d="M41.5365 51.0865C41.5365 51.2221 41.599 51.2841 41.7355 51.2841H44.7101C45.8767 51.2841 46.4971 50.6683 46.4971 49.5125V43.2212C46.4971 42.0631 45.8767 41.4358 44.7101 41.4358H41.7355C41.599 41.4358 41.5365 41.5093 41.5365 41.6334V51.0865ZM43.2217 49.6596V43.0603H44.3629C44.6869 43.0603 44.8605 43.2327 44.8605 43.5658V49.1679C44.8605 49.4988 44.6869 49.6596 44.3629 49.6596H43.2217Z" fill="#333333"/>
<path d="M48.8905 41.4358C48.7539 41.4358 48.6914 41.5093 48.6914 41.6334V51.0865C48.6914 51.2106 48.7539 51.2841 48.8905 51.2841H50.1798C50.3025 51.2841 50.3766 51.2106 50.3766 51.0865V41.6334C50.3766 41.5093 50.3025 41.4358 50.1798 41.4358H48.8905Z" fill="#333333"/>
<path d="M57.0126 41.4358C56.8622 41.4358 56.7765 41.4978 56.7279 41.6334L55.339 45.1651L53.9501 41.6334C53.8992 41.4978 53.8136 41.4358 53.6631 41.4358H52.4247C52.2372 41.4358 52.1515 41.5461 52.2256 41.7184L54.4941 47.1964V51.0383C54.4941 51.1968 54.5821 51.2841 54.7418 51.2841H55.9339C56.0937 51.2841 56.1816 51.1968 56.1816 51.0383V47.1964L58.4501 41.7184C58.5242 41.5461 58.4386 41.4358 58.2511 41.4358H57.0126Z" fill="#333333"/>
<path d="M66.275 51.2841C66.4231 51.2841 66.474 51.2106 66.4486 51.075L64.3907 41.6081C64.3652 41.4863 64.2912 41.4358 64.1801 41.4358H62.4555C62.3444 41.4358 62.2703 41.4863 62.2449 41.6081L60.187 51.075C60.15 51.2106 60.2101 51.2841 60.3467 51.2841H61.6754C61.7865 51.2841 61.849 51.2221 61.8722 51.1118L62.2078 49.3149H64.4139L64.7611 51.1118C64.7865 51.2221 64.849 51.2841 64.9601 51.2841H66.275ZM64.106 47.8857H62.518L63.312 43.5911L64.106 47.8857Z" fill="#333333"/>
<path d="M68.5194 49.5125C68.5194 50.6683 69.1398 51.2841 70.3041 51.2841H71.9407C73.0958 51.2841 73.7277 50.6683 73.7277 49.5125V46.0888C73.7277 45.9533 73.6537 45.8935 73.5287 45.8935H71.4453C71.3088 45.8935 71.2463 45.9533 71.2463 46.0888V47.3204C71.2463 47.4445 71.3088 47.5181 71.4453 47.5181H72.0912V49.1679C72.0912 49.4988 71.9176 49.6596 71.5935 49.6596H70.7023C70.3782 49.6596 70.2046 49.4988 70.2046 49.1679V43.5544C70.2046 43.2327 70.3666 43.0603 70.7023 43.0603H71.5935C71.9176 43.0603 72.0912 43.2327 72.0912 43.5544V44.4896C72.0912 44.6113 72.1537 44.6872 72.2879 44.6872H73.5287C73.6537 44.6872 73.7277 44.6113 73.7277 44.4896V43.2097C73.7277 42.0516 73.0958 41.4358 71.9407 41.4358H70.3041C69.1398 41.4358 68.5194 42.0516 68.5194 43.2097V49.5125Z" fill="#333333"/>
<path d="M75.9224 49.5125C75.9224 50.6683 76.5427 51.2841 77.7071 51.2841H79.096C80.2626 51.2841 80.883 50.6683 80.883 49.5125V43.2097C80.883 42.0516 80.2626 41.4358 79.096 41.4358H77.7071C76.5427 41.4358 75.9224 42.0516 75.9224 43.2097V49.5125ZM78.0682 49.6964C77.7441 49.6964 77.5705 49.5355 77.5705 49.2046V43.5176C77.5705 43.1959 77.7441 43.0236 78.0682 43.0236H78.7858C79.1099 43.0236 79.2835 43.1959 79.2835 43.5176V49.2046C79.2835 49.5355 79.1099 49.6964 78.7858 49.6964H78.0682Z" fill="#333333"/>
<path d="M35.1027 58.7482H34.0101V58.3989H35.1027V58.7482Z" fill="#333333"/>
<path d="M38.599 58.8861V59.9155H38.0713V58.9044L36.9138 56.8364H37.4416L38.3305 58.3346L39.2009 56.8364H39.7379L38.599 58.8861Z" fill="#333333"/>
<path d="M43.6956 59.2169H42.1216L41.8253 59.9155H41.279L42.6493 56.8364H43.1864L44.5475 59.9155H43.9919L43.6956 59.2169ZM43.4919 58.7574L42.9086 57.3879L42.3253 58.7574H43.4919Z" fill="#333333"/>
<path d="M47.879 56.8181C48.0943 56.8181 48.3072 56.8618 48.5179 56.9468C48.7262 57.0341 48.9068 57.149 49.0549 57.2961L48.7494 57.6729C48.6383 57.558 48.504 57.4661 48.3512 57.3972C48.1961 57.3236 48.041 57.2869 47.8883 57.2869C47.5734 57.2869 47.3072 57.3926 47.092 57.5994C46.8813 57.8085 46.7771 58.0635 46.7771 58.3622C46.7771 58.6701 46.8813 58.9298 47.092 59.1435C47.3072 59.3526 47.5734 59.456 47.8883 59.456C48.2077 59.456 48.4947 59.3342 48.7494 59.0883L49.0549 59.4284C48.8998 59.5893 48.7146 59.7133 48.4994 59.8052C48.2887 59.8926 48.0758 59.9339 47.8605 59.9339C47.4021 59.9339 47.0179 59.7846 46.7031 59.4836C46.3929 59.1848 46.2401 58.8126 46.2401 58.3714C46.2401 57.9302 46.3975 57.5626 46.7123 57.2685C47.0271 56.9698 47.416 56.8181 47.879 56.8181Z" fill="#333333"/>
<path d="M53.825 59.9155H53.2972V58.6379H51.6583V59.9155H51.1305V56.8364H51.6583V58.1691H53.2972V56.8364H53.825V59.9155Z" fill="#333333"/>
<path d="M58.2989 57.296H57.3174V59.9155H56.7896V57.296H55.8082V56.8364H58.2989V57.296Z" fill="#333333"/>
<path d="M61.305 56.8088C61.7055 56.8088 62.0689 56.9168 62.3976 57.1305L62.1754 57.5901C61.8605 57.3948 61.5573 57.296 61.268 57.296C61.1129 57.296 60.9902 57.3281 60.8976 57.3879C60.805 57.443 60.7587 57.5235 60.7587 57.6269C60.7587 57.7257 60.798 57.8107 60.8791 57.8842C60.9647 57.9577 61.0689 58.0129 61.1939 58.0496C61.3166 58.0818 61.4485 58.1209 61.592 58.1691C61.7402 58.2197 61.8744 58.2748 61.9994 58.3346C62.1291 58.3897 62.2332 58.4793 62.3142 58.6011C62.393 58.7252 62.4346 58.8723 62.4346 59.0423C62.4346 59.3134 62.3235 59.5294 62.1013 59.6949C61.8837 59.8557 61.6036 59.9338 61.2587 59.9338C61.0226 59.9338 60.7957 59.8925 60.5735 59.8052C60.3513 59.7132 60.1568 59.5938 59.9902 59.4467L60.2217 58.9963C60.3744 59.1388 60.5457 59.2491 60.7309 59.3272C60.9207 59.4076 61.1013 59.4467 61.268 59.4467C61.4531 59.4467 61.5943 59.4145 61.6939 59.3456C61.798 59.279 61.8513 59.1871 61.8513 59.0699C61.8513 58.9665 61.8073 58.8769 61.7217 58.8033C61.6406 58.7298 61.5388 58.6792 61.4161 58.6471C61.2911 58.6103 61.1568 58.5689 61.0087 58.5184C60.8652 58.4701 60.7332 58.4219 60.6105 58.3713C60.4855 58.3162 60.3814 58.2289 60.2957 58.1048C60.2147 57.983 60.1754 57.8382 60.1754 57.6728C60.1754 57.4109 60.2772 57.2018 60.4809 57.0478C60.6892 56.8893 60.9647 56.8088 61.305 56.8088Z" fill="#333333"/>
<path d="M65.5388 58.7482H64.4462V58.3989H65.5388V58.7482Z" fill="#333333"/>
</g>
<defs>
<clipPath id="clip0_10_7">
<rect width="100" height="60" fill="white"/>
</clipPath>
</defs>
</svg>
