<svg width="462" height="350" viewBox="0 0 462 350" fill="none" xmlns="http://www.w3.org/2000/svg">
<mask id="mask0_17_237" style="mask-type:luminance" maskUnits="userSpaceOnUse" x="0" y="0" width="462" height="350">
<path d="M3.05176e-05 0.964233H462V349.533H3.05176e-05V0.964233Z" fill="white"/>
</mask>
<g mask="url(#mask0_17_237)">
<path d="M476.051 361L477 359.578L474.361 357.673L473.412 359.095L476.051 361ZM470.772 357.183L471.721 355.762L469.082 353.857L468.133 355.278L470.772 357.183ZM465.499 353.373L466.448 351.951L463.809 350.046L462.86 351.467L465.499 353.373ZM460.226 349.556L461.175 348.135L458.536 346.229L457.587 347.651L460.226 349.556ZM454.948 345.74L455.897 344.318L453.257 342.413L452.308 343.834L454.948 345.74ZM449.675 341.923L450.623 340.501L447.984 338.596L447.035 340.018L449.675 341.923ZM444.402 338.106L445.351 336.685L442.711 334.779L441.762 336.201L444.402 338.106ZM439.123 334.29L440.072 332.868L437.432 330.963L436.484 332.384L439.123 334.29ZM433.85 330.473L434.799 329.052L432.159 327.146L431.211 328.568L433.85 330.473ZM428.571 326.656L429.526 325.235L426.886 323.33L425.938 324.751L428.571 326.656ZM423.298 322.84L424.247 321.418L421.608 319.513L420.659 320.934L423.298 322.84ZM418.025 319.023L418.974 317.602L416.335 315.696L415.386 317.118L418.025 319.023ZM412.752 315.207L413.701 313.785L411.062 311.88L410.113 313.301L412.752 315.207ZM407.473 311.396L408.422 309.974L405.783 308.069L404.834 309.491L407.473 311.396ZM402.2 307.579L403.149 306.158L400.51 304.253L399.561 305.674L402.2 307.579ZM396.922 303.763L397.87 302.341L395.231 300.436L394.282 301.857L396.922 303.763ZM391.649 299.946L392.597 298.525L389.958 296.619L389.009 298.041L391.649 299.946ZM386.376 296.13L387.324 294.708L384.685 292.803L383.736 294.224L386.376 296.13ZM381.097 292.313L382.046 290.891L379.406 288.986L378.458 290.408L381.097 292.313ZM375.824 288.496L376.773 287.075L374.133 285.169L373.185 286.591L375.824 288.496ZM370.551 284.68L371.5 283.258L368.86 281.353L367.912 282.774L370.551 284.68ZM365.272 280.863L366.221 279.442L363.582 277.536L362.633 278.958L365.272 280.863ZM359.999 277.046L360.948 275.625L358.309 273.72L357.36 275.141L359.999 277.046ZM354.726 273.23L355.675 271.808L353.036 269.903L352.087 271.324L354.726 273.23ZM349.447 269.419L350.396 267.998L347.757 266.092L346.808 267.514L349.447 269.419ZM344.174 265.603L345.123 264.181L342.484 262.276L341.535 263.697L344.174 265.603ZM338.901 261.786L339.85 260.364L337.211 258.459L336.262 259.881L338.901 261.786ZM333.623 257.969L334.571 256.548L331.932 254.642L330.983 256.064L333.623 257.969ZM328.35 254.153L329.298 252.731L326.659 250.826L325.71 252.247L328.35 254.153ZM323.077 250.336L324.025 248.915L321.386 247.009L320.437 248.431L323.077 250.336ZM317.798 246.519L318.747 245.098L316.107 243.193L315.159 244.614L317.798 246.519ZM312.525 242.703L313.474 241.281L310.834 239.376L309.886 240.798L312.525 242.703ZM248.956 240.248L250.997 237.668L249.715 236.569L247.673 239.149L248.956 240.248ZM245.27 239.245L246.19 237.805L243.516 235.954L242.596 237.393L245.27 239.245ZM307.252 238.886L308.201 237.465L305.561 235.559L304.613 236.981L307.252 238.886ZM239.922 235.547L240.842 234.108L238.168 232.256L237.248 233.696L239.922 235.547ZM253.044 235.094L255.085 232.513L253.803 231.414L251.762 233.995L253.044 235.094ZM301.973 235.07L302.922 233.648L300.283 231.743L299.334 233.164L301.973 235.07ZM234.568 231.85L235.488 230.411L232.815 228.559L231.895 229.999L234.568 231.85ZM296.7 231.259L297.649 229.837L295.01 227.932L294.061 229.354L296.7 231.259ZM257.127 229.939L259.168 227.359L257.886 226.26L255.844 228.84L257.127 229.939ZM229.215 228.147L230.135 226.708L227.461 224.856L226.541 226.296L229.215 228.147ZM291.427 227.442L292.376 226.021L289.737 224.116L288.788 225.537L291.427 227.442ZM261.215 224.784L263.257 222.204L261.974 221.105L259.933 223.685L261.215 224.784ZM223.861 224.45L224.781 223.011L222.108 221.159L221.188 222.598L223.861 224.45ZM286.148 223.626L287.097 222.204L284.458 220.299L283.509 221.72L286.148 223.626ZM218.508 220.753L219.428 219.313L216.754 217.462L215.834 218.901L218.508 220.753ZM280.875 219.809L281.824 218.388L279.185 216.482L278.236 217.904L280.875 219.809ZM265.298 219.63L267.339 217.05L266.057 215.951L264.016 218.531L265.298 219.63ZM213.154 217.056L214.074 215.616L211.401 213.765L210.481 215.204L213.154 217.056ZM275.602 215.993L276.551 214.571L273.912 212.666L272.963 214.087L275.602 215.993ZM149.004 215.921L151.046 213.347L149.763 212.248L147.722 214.828L149.004 215.921ZM145.267 214.535L146.187 213.096L143.513 211.244L142.587 212.684L145.267 214.535ZM269.386 214.475L271.376 211.967L270.801 211.477L271.278 210.76L270.577 210.253L268.098 213.376L269.386 214.475ZM207.801 213.359L208.721 211.919L206.047 210.068L205.127 211.507L207.801 213.359ZM139.919 210.832L140.845 209.393L138.171 207.541L137.245 208.98L139.919 210.832ZM153.087 210.766L155.128 208.186L153.846 207.087L151.805 209.667L153.087 210.766ZM202.453 209.661L203.373 208.222L200.699 206.376L199.779 207.816L202.453 209.661ZM134.565 207.129L135.485 205.689L132.812 203.838L131.892 205.277L134.565 207.129ZM197.1 205.964L198.02 204.525L195.346 202.673L194.426 204.113L197.1 205.964ZM157.176 205.612L159.217 203.032L157.935 201.933L155.893 204.513L157.176 205.612ZM129.218 203.426L130.143 201.986L127.47 200.135L126.544 201.574L129.218 203.426ZM191.746 202.267L192.666 200.828L189.992 198.976L189.072 200.415L191.746 202.267ZM161.264 200.457L163.305 197.883L162.023 196.784L159.982 199.364L161.264 200.457ZM123.87 199.723L124.79 198.283L122.116 196.432L121.19 197.871L123.87 199.723ZM186.393 198.57L187.313 197.13L184.639 195.279L183.719 196.718L186.393 198.57ZM118.522 196.019L119.442 194.58L116.768 192.728L115.848 194.168L118.522 196.019ZM165.347 195.303L167.388 192.723L166.106 191.624L164.064 194.204L165.347 195.303ZM181.039 194.873L181.959 193.433L179.285 191.582L178.365 193.021L181.039 194.873ZM113.169 192.316L114.089 190.877L111.415 189.025L110.495 190.465L113.169 192.316ZM175.686 191.176L176.606 189.736L173.932 187.885L173.012 189.324L175.686 191.176ZM169.435 190.148L171.476 187.568L170.194 186.469L168.153 189.049L169.435 190.148ZM107.821 188.613L108.747 187.174L106.073 185.322L105.153 186.762L107.821 188.613ZM102.473 184.91L103.393 183.471L100.719 181.619L99.7935 183.059L102.473 184.91ZM97.1197 181.207L98.0455 179.768L95.3716 177.916L94.4515 179.355L97.1197 181.207ZM91.7719 177.51L92.6919 176.07L90.018 174.219L89.098 175.658L91.7719 177.51ZM86.4241 173.807L87.3442 172.367L84.6703 170.516L83.7445 171.955L86.4241 173.807ZM81.0764 170.104L81.9964 168.664L79.3225 166.813L78.3968 168.252L81.0764 170.104ZM75.7229 166.4L76.6429 164.961L73.9691 163.109L73.049 164.549L75.7229 166.4ZM70.3752 162.697L71.2952 161.258L68.6213 159.406L67.7013 160.846L70.3752 162.697ZM65.0274 158.994L65.9532 157.555L63.2793 155.703L62.3592 157.143L65.0274 158.994ZM59.6739 155.291L60.5997 153.852L57.9258 152L57 153.439L59.6739 155.291Z" fill="#4762FF"/>
<path d="M516.778 197.722L517.732 196.286L515.271 194.646L514.317 196.083L516.778 197.722ZM511.856 194.444L512.81 193.007L510.349 191.368L509.396 192.804L511.856 194.444ZM506.929 191.165L507.882 189.728L505.421 188.089L504.468 189.526L506.929 191.165ZM502.007 187.886L502.96 186.45L500.499 184.81L499.546 186.247L502.007 187.886ZM497.079 184.614L498.032 183.177L495.571 181.538L494.618 182.974L497.079 184.614ZM492.151 181.335L493.104 179.898L490.644 178.259L489.69 179.696L492.151 181.335ZM487.229 178.056L488.183 176.62L485.722 174.98L484.768 176.417L487.229 178.056ZM482.301 174.783L483.255 173.347L480.794 171.707L479.84 173.144L482.301 174.783ZM477.374 171.505L478.327 170.068L475.866 168.429L474.913 169.865L477.374 171.505ZM472.452 168.226L473.405 166.789L470.944 165.15L469.991 166.587L472.452 168.226ZM467.524 164.947L468.477 163.511L466.016 161.871L465.063 163.308L467.524 164.947ZM462.602 161.675L463.555 160.238L461.094 158.599L460.141 160.035L462.602 161.675ZM457.674 158.396L458.628 156.959L456.167 155.32L455.213 156.757L457.674 158.396ZM452.746 155.117L453.7 153.68L451.239 152.041L450.285 153.478L452.746 155.117ZM447.824 151.838L448.778 150.402L446.317 148.762L445.364 150.199L447.824 151.838ZM442.897 148.566L443.85 147.129L441.389 145.49L440.436 146.926L442.897 148.566ZM437.969 145.287L438.922 143.85L436.461 142.211L435.508 143.648L437.969 145.287ZM433.047 142.008L434 140.572L431.539 138.932L430.586 140.369L433.047 142.008ZM428.119 138.73L429.073 137.293L426.612 135.654L425.658 137.09L428.119 138.73ZM423.197 135.457L424.151 134.02L421.69 132.381L420.736 133.817L423.197 135.457ZM418.269 132.178L419.223 130.741L416.762 129.102L415.809 130.539L418.269 132.178ZM413.342 128.899L414.295 127.463L411.834 125.823L410.881 127.26L413.342 128.899Z" fill="#C60022"/>
<path d="M407.389 125.776L407.836 125.233L408.42 125.621L409.373 124.184L407.49 122.938L406.06 124.679L407.389 125.776Z" fill="#C60022"/>
<path d="M387.689 149.716L389.661 147.32L388.327 146.223L386.354 148.619L387.689 149.716ZM391.628 144.929L393.6 142.533L392.271 141.436L390.299 143.832L391.628 144.929ZM395.566 140.142L397.539 137.746L396.21 136.649L394.238 139.045L395.566 140.142ZM399.511 135.355L401.483 132.959L400.155 131.862L398.182 134.259L399.511 135.355ZM403.45 130.563L405.422 128.166L404.093 127.069L402.121 129.466L403.45 130.563Z" fill="#C60022"/>
<path d="M384.281 153.853L385.717 152.113L384.388 151.016L383.941 151.558L383.357 151.171L382.404 152.607L384.281 153.853Z" fill="#C60022"/>
<path d="M379.907 150.944L380.861 149.507L378.364 147.844L377.411 149.281L379.907 150.944ZM374.914 147.624L375.867 146.187L373.371 144.524L372.417 145.96L374.914 147.624ZM369.921 144.303L370.874 142.867L368.377 141.203L367.424 142.64L369.921 144.303ZM364.933 140.983L365.887 139.546L363.39 137.883L362.437 139.32L364.933 140.983ZM359.94 137.656L360.893 136.22L358.397 134.557L357.443 135.993L359.94 137.656ZM354.947 134.336L355.9 132.899L353.403 131.236L352.45 132.673L354.947 134.336ZM349.953 131.016L350.907 129.579L348.41 127.916L347.457 129.352L349.953 131.016ZM344.966 127.695L345.919 126.258L343.422 124.595L342.469 126.032L344.966 127.695ZM339.972 124.375L340.926 122.938L338.429 121.275L337.476 122.711L339.972 124.375ZM334.979 121.054L335.932 119.618L333.436 117.954L332.482 119.391L334.979 121.054ZM329.986 117.728L330.939 116.291L328.442 114.628L327.489 116.065L329.986 117.728ZM324.992 114.407L325.946 112.971L323.449 111.308L322.496 112.744L324.992 114.407ZM320.005 111.087L320.958 109.65L318.462 107.987L317.508 109.424L320.005 111.087ZM315.012 107.767L315.965 106.33L313.468 104.667L312.515 106.103L315.012 107.767ZM310.018 104.446L310.972 103.009L308.475 101.346L307.521 102.783L310.018 104.446Z" fill="#C60022"/>
<path d="M304 101.275L304.441 100.738L305.025 101.126L305.978 99.689L304.101 98.4371L302.665 100.178L304 101.275Z" fill="#C60022"/>
<path d="M284.294 125.215L286.267 122.819L284.938 121.722L282.965 124.118L284.294 125.215ZM288.239 120.428L290.211 118.032L288.882 116.935L286.91 119.332L288.239 120.428ZM292.178 115.641L294.15 113.245L292.821 112.148L290.849 114.545L292.178 115.641ZM296.116 110.855L298.089 108.458L296.76 107.361L294.787 109.758L296.116 110.855ZM300.061 106.068L302.033 103.671L300.704 102.574L298.732 104.971L300.061 106.068Z" fill="#C60022"/>
<path d="M280.892 129.358L282.328 127.612L280.993 126.515L280.552 127.051L279.974 126.664L279.009 128.1L280.892 129.358Z" fill="#C60022"/>
<path d="M276.518 126.431L277.478 124.995L274.981 123.326L274.022 124.762L276.518 126.431ZM271.525 123.087L272.484 121.65L269.988 119.981L269.028 121.418L271.525 123.087ZM266.532 119.749L267.491 118.312L264.994 116.643L264.035 118.08L266.532 119.749ZM261.538 116.405L262.498 114.968L260.001 113.299L259.042 114.735L261.538 116.405ZM256.551 113.066L257.51 111.63L255.014 109.96L254.054 111.397L256.551 113.066ZM251.558 109.722L252.517 108.285L250.02 106.616L249.061 108.053L251.558 109.722ZM246.564 106.384L247.524 104.947L245.027 103.278L244.067 104.714L246.564 106.384ZM241.571 103.039L242.53 101.603L240.033 99.9335L239.074 101.37L241.571 103.039ZM236.583 99.701L237.543 98.2643L235.046 96.5952L234.087 98.0318L236.583 99.701ZM231.59 96.3567L232.549 94.9201L230.053 93.2509L229.093 94.6876L231.59 96.3567ZM226.597 93.0184L227.556 91.5817L225.059 89.9126L224.1 91.3492L226.597 93.0184ZM221.603 89.6741L222.563 88.2374L220.066 86.5683L219.107 88.005L221.603 89.6741ZM216.616 86.3358L217.575 84.8991L215.079 83.23L214.119 84.6666L216.616 86.3358ZM211.622 82.9915L212.582 81.5548L210.085 79.8857L209.126 81.3223L211.622 82.9915ZM206.629 79.6532L207.588 78.2165L205.092 76.5474L204.132 77.984L206.629 79.6532ZM201.636 76.3089L202.595 74.8722L200.098 73.2031L199.139 74.6397L201.636 76.3089ZM196.648 72.9706L197.608 71.5339L195.111 69.8647L194.152 71.3014L196.648 72.9706ZM191.655 69.6263L192.614 68.1896L190.118 66.5205L189.158 67.9571L191.655 69.6263ZM186.662 66.288L187.621 64.8513L185.124 63.1821L184.165 64.6188L186.662 66.288ZM181.668 62.9437L182.628 61.507L180.131 59.8379L179.172 61.2745L181.668 62.9437ZM176.681 59.6054L177.64 58.1687L175.143 56.4995L174.184 57.9362L176.681 59.6054ZM171.687 56.2611L172.647 54.8244L170.15 53.1553L169.191 54.5919L171.687 56.2611ZM166.694 52.9228L167.653 51.4861L165.157 49.8169L164.197 51.2536L166.694 52.9228ZM161.701 49.5785L162.66 48.1418L160.163 46.4726L159.204 47.9093L161.701 49.5785ZM156.713 46.2402L157.673 44.8035L155.176 43.1343L154.217 44.571L156.713 46.2402ZM151.72 42.8959L152.679 41.4592L150.183 39.79L149.223 41.2267L151.72 42.8959Z" fill="#C60022"/>
<path d="M146.461 37.3134L147.689 38.1355L146.732 39.5673L145.504 38.7452L146.461 37.3134Z" fill="#C60022"/>
<path d="M146.941 38.3891L151.023 32.0761L143.515 31.7005L136.007 31.325L139.433 38.0135L142.866 44.708L146.941 38.3891Z" fill="#C60022"/>
<path d="M502.096 346.761L503.056 345.324L500.559 343.655L499.6 345.091L502.096 346.761ZM497.103 343.422L498.062 341.986L495.566 340.316L494.606 341.753L497.103 343.422ZM492.116 340.078L493.075 338.641L490.578 336.972L489.619 338.409L492.116 340.078ZM487.122 336.74L488.082 335.303L485.585 333.634L484.625 335.07L487.122 336.74ZM482.129 333.395L483.088 331.959L480.591 330.289L479.632 331.726L482.129 333.395ZM477.135 330.051L478.095 328.614L475.598 326.945L474.639 328.382L477.135 330.051ZM472.148 326.713L473.107 325.276L470.611 323.607L469.651 325.044L472.148 326.713ZM467.155 323.368L468.114 321.932L465.617 320.263L464.658 321.699L467.155 323.368ZM462.161 320.03L463.121 318.593L460.624 316.924L459.665 318.361L462.161 320.03ZM457.168 316.692L458.127 315.255L455.631 313.586L454.671 315.023L457.168 316.692ZM452.18 313.348L453.14 311.911L450.643 310.242L449.684 311.678L452.18 313.348ZM447.187 310.003L448.146 308.567L445.65 306.897L444.69 308.334L447.187 310.003ZM442.194 306.665L443.153 305.228L440.656 303.559L439.697 304.996L442.194 306.665ZM437.2 303.321L438.16 301.884L435.663 300.215L434.704 301.651L437.2 303.321ZM432.213 299.982L433.172 298.546L430.676 296.876L429.716 298.313L432.213 299.982ZM427.22 296.638L428.179 295.201L425.682 293.532L424.723 294.969L427.22 296.638ZM422.226 293.3L423.186 291.863L420.689 290.194L419.73 291.631L422.226 293.3ZM417.233 289.955L418.192 288.519L415.696 286.85L414.736 288.286L417.233 289.955ZM412.245 286.617L413.205 285.18L410.708 283.511L409.749 284.948L412.245 286.617ZM407.252 283.273L408.211 281.836L405.715 280.167L404.755 281.604L407.252 283.273ZM402.259 279.934L403.218 278.498L400.721 276.829L399.762 278.265L402.259 279.934ZM397.265 276.59L398.225 275.154L395.728 273.484L394.769 274.921L397.265 276.59ZM392.278 273.252L393.237 271.815L390.741 270.146L389.781 271.583L392.278 273.252ZM387.285 269.908L388.244 268.471L385.747 266.802L384.788 268.238L387.285 269.908ZM382.291 266.569L383.251 265.133L380.754 263.463L379.794 264.9L382.291 266.569ZM377.298 263.225L378.257 261.788L375.76 260.119L374.801 261.556L377.298 263.225Z" fill="#C60022"/>
<path d="M372.057 257.617L373.285 258.439L372.327 259.871L371.099 259.049L372.057 257.617Z" fill="#C60022"/>
<path d="M372.525 258.724L376.601 252.405L369.093 252.03L361.585 251.654L365.017 258.349L368.443 265.037L372.525 258.724Z" fill="#C60022"/>
<path d="M58.4806 79.8082L62.5623 73.4893L55.0543 73.1137L47.5463 72.7382L50.9726 79.4327L54.4048 86.1213L58.4806 79.8082Z" fill="#4762FF"/>
<path d="M56.1944 152.865L60 146.735L53 146.37L46 146L49.1944 152.5L52.3944 159L56.1944 152.865Z" fill="#4762FF"/>
<path d="M471.494 268.399L472.453 266.963L295.814 148.47L272.26 177.09L192.419 123.969L168.871 152.589L58.4922 78.9078L57.5329 80.3445L169.21 154.89L192.759 126.27L272.599 179.391L296.148 150.771L471.494 268.399Z" fill="#4762FF"/>
</g>
<path d="M193.872 99.0492C193.872 99.0492 222.971 74.0595 277.185 86.989C277.185 86.989 325.733 98.4643 330.023 155.999C330.023 155.999 330.941 175.03 310.727 207.428C310.727 207.428 303.377 229.367 305.214 266.553L243.463 240.574L193.872 152.101V99.0492Z" fill="#D1D3D4"/>
<path d="M266.606 220.997H270.573C270.862 219.597 271.245 218.241 271.726 216.929L268.409 215.016C267.616 214.557 267.343 213.54 267.797 212.736L271.125 206.974C271.589 206.181 272.611 205.908 273.398 206.367L276.846 208.357C277.77 207.302 278.781 206.318 279.863 205.416L277.945 202.092C277.486 201.288 277.759 200.277 278.557 199.817L284.316 196.488C285.109 196.034 286.125 196.308 286.584 197.1L288.568 200.545C289.89 200.096 291.262 199.752 292.661 199.506V195.663C292.661 194.744 293.404 193.995 294.322 193.995H300.967C301.896 193.995 302.639 194.744 302.639 195.663V199.637C304.033 199.916 305.388 200.304 306.7 200.785L308.607 197.467C309.071 196.668 310.088 196.401 310.891 196.854L316.651 200.189C317.443 200.643 317.716 201.665 317.257 202.458L315.268 205.908C316.323 206.837 317.312 207.843 318.208 208.926L321.531 207.007C322.334 206.547 323.345 206.826 323.804 207.619L327.137 213.381C327.596 214.174 327.323 215.196 326.525 215.65L323.082 217.64C323.531 218.963 323.875 220.33 324.115 221.729H327.951C328.875 221.729 329.618 222.484 329.618 223.397V230.05C329.618 230.969 328.875 231.712 327.951 231.712H323.979C323.7 233.112 323.317 234.473 322.837 235.78L326.159 237.699C326.957 238.158 327.219 239.18 326.766 239.973L323.443 245.73C322.984 246.528 321.962 246.801 321.17 246.347L317.722 244.352C316.793 245.413 315.782 246.402 314.705 247.299L316.623 250.623C317.082 251.415 316.815 252.438 316.017 252.891L310.252 256.221C309.454 256.675 308.443 256.407 307.984 255.609L305.989 252.164C304.667 252.613 303.306 252.957 301.902 253.192V257.041C301.902 257.959 301.158 258.703 300.246 258.703L293.59 258.708C292.672 258.708 291.929 257.965 291.929 257.041V253.066C290.541 252.782 289.185 252.405 287.868 251.918L285.95 255.231C285.491 256.035 284.48 256.303 283.682 255.844L277.917 252.514C277.125 252.06 276.857 251.038 277.311 250.24L279.3 246.796C278.24 245.872 277.256 244.86 276.354 243.778L273.032 245.702C272.234 246.161 271.223 245.888 270.759 245.095L267.436 239.333C266.977 238.54 267.25 237.518 268.043 237.064L271.491 235.069C271.043 233.751 270.699 232.379 270.458 230.985H266.616C265.698 230.985 264.961 230.236 264.955 229.318V222.664C264.939 221.735 265.687 220.997 266.606 220.997ZM297.278 239.628C304.607 239.628 310.547 233.68 310.547 226.354C310.547 219.018 304.607 213.075 297.278 213.075C289.95 213.075 284.01 219.018 284.01 226.354C284.01 233.686 289.95 239.628 297.278 239.628Z" fill="#122B42"/>
<path d="M297.279 205.339C308.885 205.339 318.29 214.748 318.29 226.36C318.29 237.961 308.885 247.375 297.279 247.375C285.672 247.375 276.267 237.961 276.267 226.36C276.267 214.748 285.672 205.339 297.279 205.339ZM297.279 243.614C306.809 243.614 314.536 235.884 314.536 226.354C314.536 216.82 306.809 209.09 297.279 209.09C287.748 209.09 280.027 216.82 280.027 226.354C280.027 235.884 287.748 243.614 297.279 243.614Z" fill="#1C4563"/>
<path d="M297.278 205.339C297.475 205.339 297.666 205.345 297.858 205.35V209.111C297.666 209.101 297.481 209.09 297.278 209.09C287.748 209.09 280.027 216.82 280.027 226.354C280.027 235.884 287.748 243.614 297.278 243.614C297.481 243.614 297.666 243.603 297.858 243.597V247.359C297.666 247.359 297.481 247.37 297.278 247.37C285.672 247.37 276.267 237.956 276.267 226.354C276.267 214.748 285.672 205.339 297.278 205.339Z" fill="#1C4563"/>
<path d="M221.971 178.48L222.304 168.53L246.343 157.945L250.266 143.042C250.163 142.988 266.327 135.071 266.223 135.022C274.775 136.93 272.349 130.217 272.349 130.217L253.507 168.978L221.971 178.48Z" fill="#001A45"/>
<path d="M223.429 168.032L254.671 160.285L252.288 156.016L257.48 150.97L260.928 153.698V162.325C260.928 162.325 257.868 166.693 256.321 167.147C254.775 167.6 237.189 173.477 237.058 173.554C236.922 173.63 226.309 177.179 226.309 177.179L223.429 168.032Z" fill="#00102E"/>
<path d="M222.588 174.423C222.971 175.467 222.801 177.026 223.337 178.174C221.938 178.917 218.255 179.699 215.539 180.683C212.429 181.809 210.309 176.38 210.67 173.22C211.036 170.028 212.73 173.231 213.151 170.503C213.506 168.213 219.244 169.055 220.954 169.465C221.205 171.159 221.889 172.854 222.588 174.423Z" fill="#FFD59A"/>
<path d="M219.757 168.639L222.774 178.863L226.309 177.791L223.293 167.568L219.757 168.639Z" fill="#E6E6E6"/>
<path d="M239.818 248.846C239.577 249.469 239.359 249.819 239.184 249.83C237.02 250.01 237.413 254.138 236.686 254.543C233.096 256.543 219.26 263 218.041 259.703C216.822 256.412 229.708 248.95 229.708 248.95L229.73 248.753C233.102 249.114 236.675 248.895 239.818 248.846Z" fill="#030202"/>
<path d="M285.311 191.027L285.18 190.655C274.076 178.638 280.644 182.301 275.278 180.218C275.475 180.568 208.877 183.099 208.877 183.099L229.036 247.331C231.178 251.355 239.288 251.913 240.282 249.967C241.108 244.062 229.075 200.78 229.075 200.78L261.753 204.071L285.311 191.027Z" fill="#001A45"/>
<path d="M285.311 191.027L285.18 190.655C274.076 178.638 275.103 182.613 269.731 180.53C269.748 180.552 260.103 181.038 260.103 181.038L217.959 187.817C217.959 187.817 235.053 239.153 234.228 245.057C233.698 246.09 231.167 246.413 228.588 245.894L229.042 247.337C231.184 251.361 239.293 251.918 240.288 249.972C241.113 244.068 229.08 200.785 229.08 200.785L261.758 204.076L285.311 191.027Z" fill="#00102E"/>
<path d="M268.414 130.687L280.196 127.713C277.775 138.27 281.966 150.964 284.289 161.652C285.666 167.688 287.431 173.385 289.251 179.3C290.611 184.062 288.038 185.822 288.038 185.822L276.491 194.908C275.054 194.476 275.021 188.129 267.802 181.815C267.802 181.815 268.808 178.168 260.228 166.086C259.173 164.599 259.949 163.708 258.977 162.144C255.13 136.717 257.009 139.216 268.414 130.687Z" fill="#E3E3E3"/>
<path d="M266.567 120.354L271.693 119.245C271.693 119.245 277.688 125.05 278.967 126.21C280.245 127.369 263.786 137.985 263.786 137.985C263.786 137.985 263.338 137.018 260.152 135.7C260.152 135.7 260.764 132.108 260.431 131.737C258.398 129.462 266.567 120.354 266.567 120.354Z" fill="#FFC16B"/>
<path d="M251.785 256.439C251.545 257.063 251.326 257.407 251.152 257.423C248.988 257.604 249.381 261.731 248.654 262.136C245.058 264.137 231.227 270.594 230.009 267.297C228.79 264.006 241.676 256.543 241.676 256.543L241.698 256.346C245.069 256.707 248.643 256.489 251.785 256.439Z" fill="#030202"/>
<path d="M273.726 211.67L241.047 208.379C241.047 208.379 253.081 251.661 252.255 257.566C251.261 259.512 243.151 258.949 241.009 254.931L220.85 190.699C220.85 190.699 287.448 188.162 287.251 187.817C292.617 189.9 286.049 186.232 297.153 198.254L297.284 198.626" fill="#001A45"/>
<path d="M236.304 200.802C237.217 203.404 248.119 207.805 250.698 208.554C251.638 208.926 252.802 208.587 253.938 208.652C259.288 208.778 263.971 209.56 269.054 209.735C271.999 209.931 291.393 205.361 288.087 189.124C287.519 186.341 293.513 198.407 297.147 198.205C296.333 199.637 298.186 209.21 287.185 212.321L273.72 211.67L240.698 208.483L244.162 219.756C244.168 219.756 238.26 206.367 236.304 200.802Z" fill="#00102E"/>
<path d="M279.136 128.866L269.534 144.027L267.715 140.123C267.715 140.123 270.425 166.638 270.289 166.551C270.152 166.463 265.267 142.293 265.267 142.293L264.43 141.096L262.316 142.868L259.037 136.832L260.064 135.011L265.206 138.007C265.206 138.007 269.289 138.029 269.463 137.964C269.644 137.893 279.136 128.866 279.136 128.866Z" fill="#C9C9C9"/>
<path d="M272.633 158.191C268.988 147.011 271.852 137.351 281.273 124.864L296.005 130.217C296.005 130.217 297.809 168.393 300.541 174.27C304.765 183.362 308.12 183.875 308.12 183.875C309.59 191.628 303.284 204.475 298.136 205.618C296.273 202.671 279.961 180.661 272.633 158.191Z" fill="#001A45"/>
<path d="M281.267 124.766L283.086 126.209C278.403 135.618 283.529 139.697 283.529 139.697L276.879 144.743L282.868 146.519C282.868 146.519 276.376 161.007 279.895 175.314C279.895 175.314 274.425 163.598 272.633 158.099C268.982 146.913 271.846 137.253 281.267 124.766Z" fill="#00245E"/>
<path d="M272.633 158.191C275.321 166.43 279.218 174.609 283.163 181.809L296 130.217C296 130.217 281.24 143.54 271.25 151.866C271.474 153.938 271.933 156.037 272.633 158.191Z" fill="#00102E"/>
<path d="M259.556 134.924L261.589 136.832C260.917 152.227 265.687 173.658 273.174 188.216C258.458 175.506 250.266 143.042 250.266 143.042L259.556 134.924Z" fill="#001A45"/>
<path d="M258.512 163.998C257.458 162.5 256.409 157.306 256.409 157.306C256.409 157.306 256.791 155.901 257.715 153.43C255.294 153.167 255.835 151.762 253.496 151.024C254.939 150.663 255.933 146.891 256.671 145.683C259.261 145.831 258.633 148.203 261.294 148.362C261.392 159.433 260.562 165.922 268.371 177.649C265.802 175.631 261.786 168.3 258.512 163.998Z" fill="#00102E"/>
<path d="M266.458 174.997C261.43 168.027 259.933 162.756 253.911 156.765C256.152 156.169 257.627 153.206 258.501 151.057C255.895 150.926 255.638 150.242 253.14 149.472C257.277 146.306 259.671 139.871 259.163 135.022L261.583 136.832C260.966 151.03 264.168 164.118 268.666 178.217C268.261 176.943 267.092 176.069 266.458 174.997Z" fill="#00245E"/>
<path d="M263.092 104.194C263.092 104.194 258.108 101.001 253.239 104.112C248.375 107.222 247.785 109.027 249.43 112.826C251.075 116.62 253.004 118.96 250.938 120.157C248.873 121.355 247.244 121.185 247.244 121.185C247.244 121.185 248.048 124.542 250.982 125.165C252.747 125.542 254.867 125.143 254.867 125.143C254.867 125.143 255.556 129.167 254.556 131.562C253.78 133.415 258.512 135.618 265.578 130.813C270.841 127.232 271.398 123.492 270.983 122.41C270.382 120.83 270.097 120.529 269.485 119.436C268.873 118.337 263.092 104.194 263.092 104.194Z" fill="#FFD59A"/>
<path d="M263.141 106.162C263.141 106.162 263.004 114.778 265.419 116.462C267.835 118.145 271.469 120.698 271.469 120.698C271.469 120.698 273.234 122.153 273.895 113.531C274.578 104.675 275.261 105.057 273.556 103.587C271.857 102.116 270.43 101.958 270.43 101.958C270.43 101.958 271.081 98.3547 269.021 97.0427C266.966 95.7306 259.206 95.829 252.922 98.3219C246.643 100.809 241.987 104.992 243.501 108.294C244.752 111.011 253.048 113.799 263.141 106.162Z" fill="#382100"/>
<path d="M243.818 104.904C245.091 107.977 252.315 100.372 259.78 98.9618C262.95 98.3604 265.982 98.8033 267.89 100.553C269.797 102.302 266.272 104.139 266.272 104.139C266.272 104.139 268.917 102.969 269.988 102.865C271.059 102.761 272.556 106.993 272.944 109.005C273.283 110.749 274.524 116.954 270.983 120.349C269.911 119.594 267.299 117.763 265.425 116.456C263.01 114.772 263.146 106.156 263.146 106.156C253.053 113.794 244.758 111.006 243.512 108.289C243.015 107.228 243.168 106.069 243.818 104.904Z" fill="#261700"/>
<path d="M264.534 115.866C265.152 118.239 267.573 119.665 269.944 119.048C272.316 118.43 273.742 116.008 273.125 113.635C272.507 111.263 270.087 109.836 267.715 110.453C265.343 111.071 263.922 113.493 264.534 115.866Z" fill="#FFD59A"/>
<path d="M268.939 118.31C268.939 118.31 270.349 117.418 269.032 116.238C268.365 115.642 267.234 116.216 267.234 116.216C267.234 116.216 267.523 114.023 268.917 114.171C270.305 114.324 270.562 115.582 270.562 115.582C270.562 115.582 270.616 113.378 268.567 113.537C266.518 113.695 267.026 116.566 267.026 116.566C267.026 116.566 268.895 115.707 269.119 117.282C269.212 117.971 268.939 118.31 268.939 118.31Z" fill="#FFC16B"/>
<path d="M254.993 125.111C254.993 125.111 256.518 124.192 255.703 123.186C255.234 122.601 254.671 122.224 254.671 122.224C254.671 122.224 258.163 123.727 254.993 125.111Z" fill="#FFC16B"/>
<path d="M268.201 138.166L264.573 140.675C264.573 140.675 276.6 178.933 263.933 188.856C260.469 189.928 258.764 189.6 258.764 189.6L258.19 185.138C258.19 185.138 266.146 180.475 266.769 170.804C267.638 157.306 263.256 140.62 263.256 140.62L260.299 138.499L263.961 136.892L268.201 138.166Z" fill="#C60022"/>
<path d="M278.158 125.023L263.261 136.843L260.146 134.29L258.922 136.007L262.13 142.048L263.392 137.231L269.841 140.413L279.972 126.909L278.158 125.023Z" fill="#E3E3E3"/>
<path d="M263.261 136.843L273.704 130.419C273.644 132.945 273.19 133.267 273.321 135.733L269.835 140.418L263.392 137.236L262.124 142.053L259.43 137.144C259.315 136.843 260.102 135.066 260.102 135.066L263.261 136.843Z" fill="white"/>
<path d="M304.973 266.63L195.341 97.8029C191.319 100.389 183.789 106.862 180.008 110.935C167.843 124.028 157.198 139.172 158.384 166.064C158.63 171.87 166.559 179.032 160.165 189.939C160.165 189.939 146.531 211.326 146.755 215.005C146.755 215.005 146.225 221.718 156.553 222.446C156.553 222.446 159.389 223.37 158.351 229.017L156.909 235.823C156.909 235.823 156.624 239.59 162.182 241.137C162.182 241.137 163.018 242.039 161.63 243.63C161.63 243.63 158.788 246.123 162.909 252.126C164.39 254.28 166.663 257.063 164.849 262.415C164.849 262.415 162.384 272.759 166.346 275.459C166.346 275.459 170.718 281.249 189.631 279.904C195.937 279.467 207.527 277.078 214.391 285.251C214.615 285.661 218.052 292.117 215.866 298.126C214.921 300.733 214.631 303.467 217.834 304.309C220.801 305.096 223.725 304.09 226.61 303.505C232.025 302.412 237.326 300.936 242.545 299.192C288.918 281.785 304.973 266.63 304.973 266.63Z" fill="#1E1E1E"/>
<path opacity="0.3" d="M195.341 97.8029C195.341 97.8029 150.078 139.03 184.92 195.559C184.92 195.559 199.669 218.99 232.151 230.16C264.431 241.263 303.033 262.798 304.973 266.63L195.341 97.8029Z" fill="#404041"/>
<path d="M195.418 97.7262C195.418 97.7262 157.559 131.365 190.445 191.885C190.445 191.885 203.642 216.459 236.124 227.628C268.403 238.732 303.12 262.721 305.06 266.553L195.418 97.7262Z" fill="#F1F2F2"/>
<path d="M162.974 92.8331H167.324C167.641 91.2969 168.062 89.8153 168.592 88.372L164.952 86.2727C164.083 85.7697 163.783 84.6545 164.28 83.7743L167.93 77.4544C168.439 76.5851 169.559 76.2845 170.422 76.7874L174.204 78.9688C175.22 77.8098 176.33 76.7327 177.515 75.7432L175.412 72.0967C174.909 71.2165 175.209 70.1067 176.084 69.5983L182.401 65.9463C183.27 65.4488 184.385 65.744 184.893 66.6188L187.073 70.3965C188.521 69.9044 190.024 69.5272 191.56 69.2593V65.0442C191.56 64.0383 192.374 63.2183 193.385 63.2183H200.675C201.691 63.2183 202.505 64.0383 202.505 65.0442V69.4015C204.035 69.7076 205.516 70.1341 206.959 70.6589L209.052 67.0178C209.56 66.1377 210.675 65.8479 211.56 66.3454L217.877 70.0028C218.746 70.5003 219.041 71.6211 218.538 72.4958L216.353 76.279C217.511 77.2959 218.593 78.4002 219.577 79.5865L223.222 77.4817C224.101 76.9788 225.211 77.2849 225.719 78.1542L229.375 84.4741C229.878 85.3433 229.582 86.4641 228.703 86.967L224.927 89.1484C225.418 90.6026 225.795 92.0951 226.058 93.6313H230.266C231.276 93.6313 232.096 94.4569 232.096 95.4628V102.756C232.096 103.767 231.282 104.576 230.266 104.576H225.91C225.604 106.113 225.189 107.605 224.659 109.037L228.304 111.142C229.178 111.645 229.468 112.766 228.97 113.635L225.326 119.955C224.823 120.83 223.703 121.13 222.828 120.628L219.047 118.441C218.025 119.6 216.921 120.688 215.735 121.672L217.839 125.318C218.342 126.193 218.047 127.308 217.172 127.811L210.85 131.463C209.975 131.961 208.861 131.665 208.363 130.796L206.177 127.018C204.729 127.505 203.232 127.888 201.691 128.15V132.371C201.691 133.382 200.877 134.191 199.871 134.191L192.571 134.197C191.565 134.197 190.745 133.382 190.745 132.371V128.013C189.221 127.702 187.734 127.286 186.292 126.756L184.188 130.392C183.685 131.272 182.576 131.567 181.701 131.064L175.379 127.412C174.51 126.915 174.215 125.794 174.718 124.914L176.903 121.136C175.745 120.119 174.663 119.015 173.674 117.823L170.029 119.933C169.155 120.436 168.045 120.135 167.537 119.266L163.892 112.941C163.389 112.072 163.69 110.951 164.553 110.453L168.335 108.267C167.843 106.818 167.466 105.32 167.198 103.789H162.985C161.98 103.789 161.165 102.969 161.165 101.958V94.6591C161.149 93.6423 161.969 92.8331 162.974 92.8331ZM196.62 113.274C204.658 113.274 211.178 106.752 211.178 98.7157C211.178 90.6682 204.658 84.1515 196.62 84.1515C188.581 84.1515 182.067 90.6682 182.067 98.7157C182.062 106.747 188.581 113.274 196.62 113.274Z" fill="#122B42"/>
<path d="M196.62 75.6558C209.353 75.6558 219.664 85.9775 219.664 98.7157C219.664 111.443 209.347 121.77 196.62 121.77C183.893 121.77 173.57 111.443 173.57 98.7157C173.57 85.9775 183.893 75.6558 196.62 75.6558ZM196.62 117.643C207.074 117.643 215.549 109.163 215.549 98.7102C215.549 88.2518 207.074 79.7724 196.62 79.7724C186.166 79.7724 177.696 88.2518 177.696 98.7102C177.696 109.163 186.166 117.643 196.62 117.643Z" fill="#1C4563"/>
<path d="M196.62 75.6558C196.839 75.6558 197.041 75.6612 197.254 75.6667V79.7943C197.046 79.7834 196.839 79.7724 196.62 79.7724C186.166 79.7724 177.696 88.2518 177.696 98.7102C177.696 109.163 186.166 117.643 196.62 117.643C196.839 117.643 197.046 117.632 197.254 117.626V121.754C197.046 121.754 196.839 121.77 196.62 121.77C183.893 121.77 173.57 111.443 173.57 98.7157C173.57 85.9775 183.893 75.6558 196.62 75.6558Z" fill="#1C4563"/>
<path d="M232.222 64.3171H234.927C235.124 63.3604 235.386 62.4419 235.714 61.5453L233.452 60.2387C232.911 59.9271 232.725 59.2328 233.036 58.6861L235.304 54.7553C235.621 54.2141 236.315 54.0282 236.856 54.3398L239.206 55.6956C239.834 54.974 240.528 54.307 241.266 53.6892L239.955 51.4204C239.643 50.8737 239.829 50.1849 240.37 49.8678L244.299 47.599C244.84 47.2873 245.534 47.4732 245.846 48.0144L247.201 50.3653C248.102 50.0591 249.037 49.824 249.993 49.66V47.0413C249.993 46.4181 250.496 45.9042 251.124 45.9042H255.655C256.288 45.9042 256.791 46.4181 256.791 47.0413V49.753C257.742 49.9443 258.666 50.2067 259.562 50.5347L260.862 48.2714C261.179 47.7247 261.873 47.5443 262.42 47.8559L266.349 50.1302C266.89 50.4418 267.076 51.1361 266.764 51.6774L265.409 54.0282C266.13 54.6624 266.802 55.3457 267.414 56.0838L269.677 54.7772C270.223 54.4655 270.917 54.6514 271.229 55.1981L273.502 59.1289C273.813 59.6701 273.628 60.3645 273.087 60.6761L270.737 62.0319C271.043 62.934 271.278 63.8634 271.442 64.8201H274.059C274.688 64.8201 275.196 65.334 275.196 65.9572V70.4949C275.196 71.1236 274.688 71.6265 274.059 71.6265H271.349C271.158 72.5833 270.901 73.5127 270.567 74.4038L272.83 75.7104C273.371 76.0275 273.551 76.7218 273.245 77.2576L270.977 81.1829C270.666 81.7241 269.966 81.9155 269.425 81.6039L267.07 80.2426C266.436 80.9642 265.748 81.6421 265.015 82.249L266.321 84.5178C266.633 85.059 266.453 85.7533 265.906 86.065L261.972 88.3338C261.431 88.6454 260.737 88.4595 260.425 87.9183L259.064 85.5675C258.163 85.8736 257.234 86.1087 256.277 86.2672V88.8914C256.277 89.5201 255.769 90.0231 255.146 90.0231L250.605 90.0285C249.982 90.0285 249.469 89.5201 249.469 88.8914V86.1852C248.523 85.9884 247.6 85.7315 246.698 85.4034L245.386 87.6613C245.075 88.208 244.386 88.3939 243.84 88.0768L239.911 85.808C239.37 85.5019 239.184 84.8021 239.501 84.2554L240.862 81.9046C240.14 81.2758 239.468 80.587 238.851 79.8435L236.583 81.1556C236.036 81.4672 235.353 81.2813 235.031 80.7401L232.763 76.8093C232.452 76.268 232.637 75.5737 233.178 75.2621L235.528 73.9008C235.222 72.9988 234.987 72.0694 234.823 71.1181H232.206C231.583 71.1181 231.075 70.6097 231.075 69.981V65.4433C231.086 64.8201 231.599 64.3171 232.222 64.3171ZM253.141 77.0225C258.141 77.0225 262.19 72.966 262.19 67.9691C262.19 62.9668 258.141 58.9157 253.141 58.9157C248.146 58.9157 244.091 62.9668 244.091 67.9691C244.091 72.966 248.141 77.0225 253.141 77.0225Z" fill="#122B42"/>
<path d="M253.141 53.6401C261.054 53.6401 267.469 60.0584 267.469 67.9747C267.469 75.8855 261.059 82.3092 253.141 82.3092C245.228 82.3092 238.812 75.8909 238.812 67.9747C238.812 60.053 245.228 53.6401 253.141 53.6401ZM253.141 79.7397C259.638 79.7397 264.906 74.4695 264.906 67.9692C264.906 61.4689 259.638 56.1932 253.141 56.1932C246.643 56.1932 241.375 61.4635 241.375 67.9692C241.375 74.4695 246.638 79.7397 253.141 79.7397Z" fill="#1C4563"/>
<path d="M253.14 53.6401C253.277 53.6401 253.403 53.6401 253.534 53.6456V56.2096C253.403 56.2042 253.277 56.1987 253.14 56.1987C246.643 56.1987 241.375 61.4689 241.375 67.9747C241.375 74.475 246.643 79.7452 253.14 79.7452C253.277 79.7452 253.403 79.7397 253.534 79.7343V82.2983C253.403 82.2983 253.277 82.3092 253.14 82.3092C245.228 82.3092 238.812 75.8909 238.812 67.9747C238.812 60.053 245.228 53.6401 253.14 53.6401Z" fill="#1C4563"/>
<path d="M239.272 178.48L239.605 168.53L268.737 155.524L281.273 124.859C281.169 124.804 285.896 127.412 285.787 127.363C294.339 129.265 296.005 130.217 296.005 130.217L277.163 168.978L239.272 178.48Z" fill="#001A45"/>
<path d="M239.894 174.423C240.277 175.467 240.108 177.026 240.643 178.174C239.244 178.917 235.561 179.699 232.845 180.683C229.736 181.809 227.615 176.38 227.976 173.22C228.342 170.028 230.036 173.231 230.457 170.503C230.812 168.213 236.55 169.055 238.255 169.465C238.512 171.159 239.195 172.854 239.894 174.423Z" fill="#FFD59A"/>
<path d="M237.064 168.639L240.081 178.863L243.616 177.791L240.6 167.568L237.064 168.639Z" fill="#E6E6E6"/>
<path opacity="0.3" d="M379.007 179.147L396.444 161.702L413.876 179.147H405.374V202.027H387.493V179.147H379.007Z" fill="#001A45"/>
<path d="M330.935 215.501L351.045 195.382L371.155 215.501H361.346V241.89H340.722V215.501H330.935Z" fill="#4762FF"/>
<path opacity="0.5" d="M340 156.24L351.235 145L362.47 156.24H356.989V170.99H345.465V156.24H340Z" fill="#001A45"/>
<path opacity="0.3" d="M113.629 135.563L98.3118 120.245L82.9999 135.563H90.47V155.66H106.175V135.563H113.629Z" fill="#001A45"/>
<path d="M146.154 165.987L128.493 148.318L110.831 165.987H119.449V189.162H137.558V165.987H146.154Z" fill="#4762FF"/>
<path d="M144.362 86.5384L134.493 76.6704L124.624 86.5384H129.438V99.4898H139.559V86.5384H144.362Z" fill="#C60022"/>
<path d="M403.962 69.68C391.556 69.68 379.156 69.68 366.751 69.68C354.279 69.68 341.802 69.68 329.33 69.68C329.27 69.68 329.205 69.68 329.139 69.68C324.009 69.68 319.731 66.5741 319.731 62.8602C319.731 59.1404 324.009 56.0405 329.139 56.0405C341.611 56.0405 354.088 56.0405 366.56 56.0405C378.966 56.0405 391.366 56.0405 403.772 56.0405C403.831 56.0405 403.897 56.0405 403.956 56.0405C409.087 56.0405 413.365 59.1464 413.365 62.8602C413.371 66.5801 409.093 69.68 403.962 69.68Z" fill="#E6E4E6"/>
<path d="M315.905 41.036C307.789 41.036 299.674 41.036 291.558 41.036C287.84 41.036 284.741 37.9302 284.741 34.2163C284.741 30.4965 287.846 27.3966 291.558 27.3966C299.674 27.3966 307.789 27.3966 315.905 27.3966C319.623 27.3966 322.722 30.5024 322.722 34.2163C322.722 37.9302 319.617 41.036 315.905 41.036Z" fill="#E6E4E6"/>
<path d="M100.958 59.9156C92.8419 59.9156 84.7262 59.9156 76.6105 59.9156C72.8922 59.9156 69.7937 56.8097 69.7937 53.0958C69.7937 49.376 72.8982 46.2761 76.6105 46.2761C84.7262 46.2761 92.8419 46.2761 100.958 46.2761C104.676 46.2761 107.774 49.382 107.774 53.0958C107.774 56.8097 104.67 59.9156 100.958 59.9156Z" fill="#E6E4E6"/>
<path d="M72.106 260.715C63.9903 260.715 55.8745 260.715 47.7588 260.715C44.0406 260.715 40.9421 257.61 40.9421 253.896C40.9421 250.176 44.0466 247.076 47.7588 247.076C55.8745 247.076 63.9903 247.076 72.106 247.076C75.8242 247.076 78.9227 250.182 78.9227 253.896C78.9227 257.615 75.8242 260.715 72.106 260.715Z" fill="#E6E4E6"/>
<path d="M331.904 316.287C323.788 316.287 315.673 316.287 307.557 316.287C303.839 316.287 300.74 313.181 300.74 309.467C300.74 305.747 303.845 302.647 307.557 302.647C315.673 302.647 323.788 302.647 331.904 302.647C335.622 302.647 338.721 305.753 338.721 309.467C338.721 313.181 335.622 316.287 331.904 316.287Z" fill="#E6E4E6"/>
<path d="M381.653 103.003C373.538 103.003 365.422 103.003 357.306 103.003C353.588 103.003 350.49 99.8976 350.49 96.1837C350.49 92.4639 353.588 89.364 357.306 89.364C365.422 89.364 373.538 89.364 381.653 89.364C385.372 89.364 388.47 92.4698 388.47 96.1837C388.476 99.9036 385.372 103.003 381.653 103.003Z" fill="#E6E4E6"/>
<path d="M115.891 283.887C106.905 283.887 97.9132 283.887 88.9275 283.887C79.8882 283.887 70.8489 283.887 61.8096 283.887C61.7619 283.887 61.7202 283.887 61.6725 283.887C57.9543 283.887 54.8558 280.781 54.8558 277.067C54.8558 273.347 57.9603 270.248 61.6725 270.248C70.7118 270.248 79.7512 270.248 88.7905 270.248C97.7761 270.248 106.768 270.248 115.753 270.248C115.801 270.248 115.843 270.248 115.891 270.248C119.609 270.248 122.707 273.353 122.707 277.067C122.707 280.781 119.609 283.887 115.891 283.887Z" fill="#E6E4E6"/>
</svg>
