<svg width="531" height="396" viewBox="0 0 531 396" fill="none" xmlns="http://www.w3.org/2000/svg">
<path d="M530.116 181.015H0.00012207V181.153H530.116V181.015Z" fill="#EBEBEB"/>
<path d="M251.275 156.429H46.5653C44.9597 156.429 43.4198 156.097 42.2845 155.507C41.1492 154.917 40.5114 154.116 40.5114 153.281V3.65285C40.5253 2.82281 41.1693 2.02925 42.3031 1.44489C43.437 0.860529 44.9688 0.532683 46.5653 0.532715H251.275C252.88 0.532715 254.42 0.864346 255.556 1.45465C256.691 2.04496 257.329 2.84559 257.329 3.68041V153.281C257.329 154.116 256.691 154.917 255.556 155.507C254.42 156.097 252.88 156.429 251.275 156.429ZM46.5653 0.642967C45.0308 0.644425 43.56 0.962003 42.475 1.52615C41.39 2.0903 40.7792 2.85503 40.7764 3.65285V153.281C40.7792 154.079 41.39 154.844 42.475 155.408C43.56 155.972 45.0308 156.29 46.5653 156.291H251.275C252.809 156.29 254.28 155.972 255.365 155.408C256.45 154.844 257.061 154.079 257.064 153.281V3.65285C257.061 2.85503 256.45 2.0903 255.365 1.52615C254.28 0.962003 252.809 0.644425 251.275 0.642967H46.5653Z" fill="#EBEBEB"/>
<path d="M480.614 156.429H275.883C274.278 156.428 272.74 156.096 271.605 155.506C270.471 154.916 269.832 154.116 269.829 153.281V3.65285C269.846 2.82326 270.491 2.03053 271.624 1.44648C272.757 0.862428 274.287 0.53412 275.883 0.532715H480.614C482.207 0.535584 483.733 0.864711 484.862 1.44876C485.992 2.03281 486.633 2.82472 486.646 3.65285V153.281C486.647 154.114 486.012 154.913 484.881 155.503C483.75 156.093 482.216 156.426 480.614 156.429ZM275.883 0.642967C274.349 0.644425 272.878 0.962003 271.793 1.52615C270.708 2.0903 270.097 2.85503 270.094 3.65285V153.281C270.097 154.079 270.708 154.844 271.793 155.408C272.878 155.972 274.349 156.29 275.883 156.291H480.614C482.148 156.29 483.619 155.972 484.704 155.408C485.789 154.844 486.4 154.079 486.403 153.281V3.65285C486.4 2.85503 485.789 2.0903 484.704 1.52615C483.619 0.962003 482.148 0.644425 480.614 0.642967H275.883Z" fill="#EBEBEB"/>
<path d="M476.998 186.263H449.432V186.401H476.998V186.263Z" fill="#EBEBEB"/>
<path d="M377.475 184.769H320.116V184.907H377.475V184.769Z" fill="#EBEBEB"/>
<path d="M458.02 191.385H420.478V191.522H458.02V191.385Z" fill="#EBEBEB"/>
<path d="M80.7366 190.458H55.6198V190.596H80.7366V190.458Z" fill="#EBEBEB"/>
<path d="M117.569 190.458H90.173V190.596H117.569V190.458Z" fill="#EBEBEB"/>
<path d="M281.11 188.132H223.264V188.27H281.11V188.132Z" fill="#EBEBEB"/>
<path d="M159.48 14.8986H64.4728V121.727H159.48V14.8986Z" fill="#E6E6E6"/>
<path d="M163.117 14.8986H68.1094V121.727H163.117V14.8986Z" fill="#F5F5F5"/>
<path d="M156.586 118.563V18.0684L74.6298 18.0684L74.6298 118.563H156.586Z" fill="white"/>
<path d="M156.586 118.563V18.0684H153.84V118.563H156.586Z" fill="#E6E6E6"/>
<path d="M160.413 105.542H70.8022V109.792H160.413V105.542Z" fill="#F5F5F5"/>
<path d="M160.413 94.3296H70.8022V98.5798H160.413V94.3296Z" fill="#F5F5F5"/>
<path d="M468.601 14.8986H373.594V121.727H468.601V14.8986Z" fill="#E6E6E6"/>
<path d="M472.238 14.8986H377.231V121.727H472.238V14.8986Z" fill="#F5F5F5"/>
<path d="M465.707 118.563V18.0684L383.751 18.0684V118.563H465.707Z" fill="white"/>
<path d="M465.707 118.563V18.0684H462.961V118.563H465.707Z" fill="#E6E6E6"/>
<path d="M469.534 105.542H379.923V109.792H469.534V105.542Z" fill="#F5F5F5"/>
<path d="M469.534 94.3296H379.923V98.5798H469.534V94.3296Z" fill="#F5F5F5"/>
<path d="M222.543 81.0112H201.243L203.756 54.3633H222.543V81.0112Z" fill="#F5F5F5"/>
<path d="M203.915 84.611L199.324 87.1247H203.915L232.074 84.611H203.915Z" fill="#F5F5F5"/>
<path d="M199.324 84.611V87.1247L227.483 84.611H199.324Z" fill="#E6E6E6"/>
<path d="M314.359 84.611L309.758 87.1247H314.359L342.519 84.611H314.359Z" fill="#F5F5F5"/>
<path d="M309.758 84.611V87.1247L337.928 84.611H309.758Z" fill="#E6E6E6"/>
<path d="M178.639 84.9197H209.269V81.0553H178.639V84.9197Z" fill="#E6E6E6"/>
<path d="M361.55 81.0498H209.269V84.9141H361.55V81.0498Z" fill="#F5F5F5"/>
<path d="M253.82 81.0112H208.102L202.451 48.7184H248.169L253.82 81.0112Z" fill="#E6E6E6"/>
<path d="M256.194 81.0112H210.477L204.826 48.7184H250.543L256.194 81.0112Z" fill="#F0F0F0"/>
<path d="M214.316 77.4335L209.142 52.296H246.695L251.869 77.4335H214.316Z" fill="#FAFAFA"/>
<path d="M285.404 81.0112H259.619L262.662 48.7515H285.404V81.0112Z" fill="#E0E0E0"/>
<path d="M323.275 81.0112H267.942L261.093 41.9214H316.437L323.275 81.0112Z" fill="#E6E6E6"/>
<path d="M326.148 81.0112H270.804L263.955 41.9214H319.299L326.148 81.0112Z" fill="#F0F0F0"/>
<path d="M275.448 76.6837L269.193 46.2487H314.656L320.911 76.6837H275.448Z" fill="#FAFAFA"/>
<path opacity="0.5" d="M319.723 81.0112H307.467L308.909 65.6697H319.723V81.0112Z" fill="#E0E0E0"/>
<path d="M337.737 81.0112H311.422L308.167 62.4227H334.482L337.737 81.0112Z" fill="#F0F0F0"/>
<path d="M339.094 81.0112H312.779L309.524 62.4227H335.839L339.094 81.0112Z" fill="#F5F5F5"/>
<path d="M314.995 78.955L312.016 64.4789H333.634L336.613 78.955H314.995Z" fill="white"/>
<path d="M350.937 135.685H325.746V181.015H350.937V135.685Z" fill="#E6E6E6"/>
<path d="M346.155 181.015H350.937V173.937H341.13L346.155 181.015Z" fill="#F0F0F0"/>
<path d="M224.314 135.685H199.122V181.015H224.314V135.685Z" fill="#E6E6E6"/>
<path d="M350.937 135.685H220.136V177.531H350.937V135.685Z" fill="#F0F0F0"/>
<path d="M342.794 168.116H291.564C290.243 168.114 288.977 167.841 288.043 167.355C287.109 166.87 286.583 166.212 286.581 165.525V140.051C286.583 139.364 287.109 138.706 288.043 138.221C288.977 137.735 290.243 137.462 291.564 137.46H342.784C344.104 137.462 345.37 137.735 346.304 138.221C347.238 138.706 347.764 139.364 347.767 140.051V165.525C347.764 166.211 347.239 166.868 346.308 167.353C345.376 167.839 344.113 168.113 342.794 168.116ZM291.564 138.039C290.536 138.039 289.551 138.251 288.824 138.628C288.096 139.005 287.686 139.517 287.683 140.051V165.525C287.678 165.792 287.774 166.056 287.966 166.304C288.159 166.551 288.444 166.776 288.805 166.966C289.166 167.155 289.595 167.306 290.069 167.409C290.543 167.512 291.051 167.565 291.564 167.565H342.784C343.299 167.567 343.811 167.515 344.288 167.414C344.765 167.312 345.199 167.162 345.563 166.972C345.928 166.782 346.215 166.556 346.41 166.308C346.604 166.059 346.701 165.793 346.696 165.525V140.051C346.693 139.517 346.283 139.005 345.556 138.628C344.828 138.251 343.843 138.039 342.815 138.039H291.564Z" fill="#E0E0E0"/>
<path d="M279.498 168.116H228.278C226.958 168.114 225.692 167.841 224.758 167.355C223.824 166.87 223.298 166.212 223.295 165.525V140.051C223.298 139.364 223.824 138.706 224.758 138.221C225.692 137.735 226.958 137.462 228.278 137.46H279.498C280.82 137.46 282.087 137.733 283.022 138.219C283.956 138.705 284.481 139.364 284.481 140.051V165.525C284.481 166.212 283.956 166.871 283.022 167.357C282.087 167.843 280.82 168.116 279.498 168.116ZM228.278 138.039C227.252 138.039 226.268 138.251 225.542 138.628C224.816 139.006 224.408 139.517 224.408 140.051V165.525C224.408 166.058 224.816 166.57 225.542 166.948C226.268 167.325 227.252 167.537 228.278 167.537H279.498C280.525 167.537 281.511 167.325 282.238 166.948C282.966 166.571 283.376 166.059 283.379 165.525V140.051C283.376 139.517 282.966 139.005 282.238 138.628C281.511 138.251 280.525 138.039 279.498 138.039H228.278Z" fill="#E0E0E0"/>
<path d="M274.749 145.514C273.796 145.515 272.864 145.369 272.071 145.095C271.277 144.82 270.659 144.429 270.293 143.972C269.927 143.514 269.831 143.01 270.017 142.524C270.202 142.038 270.661 141.592 271.335 141.242C272.008 140.891 272.867 140.653 273.802 140.556C274.736 140.46 275.705 140.51 276.585 140.7C277.465 140.89 278.217 141.212 278.745 141.624C279.273 142.037 279.554 142.521 279.552 143.017C279.549 143.679 279.042 144.313 278.142 144.781C277.242 145.249 276.022 145.513 274.749 145.514ZM274.749 141.104C274.017 141.104 273.301 141.217 272.693 141.428C272.084 141.64 271.61 141.94 271.33 142.292C271.05 142.643 270.977 143.03 271.12 143.403C271.262 143.776 271.615 144.119 272.132 144.388C272.65 144.657 273.309 144.841 274.027 144.915C274.745 144.989 275.489 144.951 276.165 144.805C276.841 144.66 277.419 144.413 277.825 144.097C278.232 143.78 278.449 143.408 278.449 143.028C278.449 142.518 278.059 142.028 277.365 141.668C276.671 141.307 275.73 141.104 274.749 141.104Z" fill="#FAFAFA"/>
<path d="M296.324 145.514C295.369 145.517 294.434 145.373 293.637 145.099C292.841 144.825 292.219 144.434 291.851 143.976C291.483 143.517 291.385 143.012 291.571 142.525C291.757 142.038 292.217 141.591 292.893 141.24C293.569 140.889 294.431 140.651 295.368 140.555C296.305 140.46 297.276 140.512 298.157 140.704C299.037 140.896 299.788 141.221 300.313 141.635C300.838 142.05 301.114 142.537 301.106 143.034C301.098 143.691 300.591 144.32 299.696 144.785C298.8 145.249 297.589 145.511 296.324 145.514ZM296.324 141.104C295.594 141.106 294.881 141.221 294.276 141.433C293.67 141.646 293.199 141.947 292.922 142.298C292.645 142.649 292.574 143.036 292.718 143.408C292.863 143.78 293.216 144.122 293.733 144.39C294.25 144.658 294.908 144.841 295.625 144.915C296.341 144.989 297.084 144.951 297.759 144.806C298.434 144.661 299.012 144.415 299.418 144.1C299.825 143.784 300.044 143.413 300.046 143.034C300.047 142.779 299.952 142.528 299.765 142.293C299.578 142.058 299.304 141.845 298.958 141.666C298.612 141.486 298.201 141.344 297.749 141.248C297.297 141.152 296.813 141.103 296.324 141.104Z" fill="#FAFAFA"/>
<path d="M224.918 181.015H220.136V173.937H229.943L224.918 181.015Z" fill="#F0F0F0"/>
<path d="M419.194 146.771C421.177 139.263 440.654 137.124 465.378 136.848C488.905 136.584 496.443 132.256 496.443 132.256C496.443 132.256 496.369 149.781 462.462 156.131C430.274 162.157 417.212 154.29 419.194 146.771Z" fill="#E6E6E6"/>
<path d="M424.305 158C423.891 154.908 414.413 149.235 391.607 151.815C375.12 153.678 368.992 149.235 368.992 149.235C368.992 149.235 370.519 161.782 395.318 165.552C418.866 169.13 425.036 163.425 424.305 158Z" fill="#E6E6E6"/>
<path d="M415.802 136.088C414.741 133.045 404.139 127.923 382.033 131.749C366.013 134.505 359.016 130.437 359.016 130.437C359.016 130.437 363.098 142.824 388.522 145.2C412.663 147.46 417.636 141.446 415.802 136.088Z" fill="#E6E6E6"/>
<path d="M425.45 162.002C427.327 160.497 435.183 159.009 445.329 163.656C452.677 167.002 458.179 165.646 458.179 165.646C458.179 165.646 450.641 171.776 436.052 170.056C422.195 168.43 422.153 164.643 425.45 162.002Z" fill="#E6E6E6"/>
<path d="M419.099 176.986C418.972 176.986 418.847 176.971 418.731 176.944C418.616 176.916 418.514 176.876 418.431 176.826C416.777 175.811 418.134 173.375 420 170.007C422.407 165.69 425.397 160.31 422.863 156.407C421.457 154.348 419.818 152.334 417.954 150.376C414.381 146.44 411.285 143.039 413.862 139.494C413.902 139.438 413.963 139.386 414.042 139.342C414.12 139.298 414.215 139.262 414.321 139.237C414.426 139.212 414.54 139.198 414.656 139.195C414.772 139.193 414.887 139.203 414.996 139.224C415.105 139.245 415.204 139.277 415.289 139.318C415.374 139.359 415.442 139.409 415.489 139.464C415.537 139.518 415.562 139.578 415.565 139.638C415.568 139.698 415.547 139.758 415.505 139.814C413.194 143 415.993 146.082 419.544 149.985C421.437 151.975 423.101 154.022 424.527 156.115C427.231 160.288 424.167 165.817 421.697 170.26C420.233 172.884 418.728 175.591 419.778 176.236C419.925 176.329 419.997 176.449 419.977 176.57C419.958 176.69 419.848 176.802 419.672 176.881C419.51 176.949 419.307 176.986 419.099 176.986Z" fill="#E6E6E6"/>
<path d="M404.362 173.077C404.365 173.29 404.529 173.493 404.819 173.643C405.109 173.793 405.501 173.877 405.91 173.877H406.345L407.405 178.391C407.571 179.119 408.244 179.789 409.297 180.276C410.351 180.763 411.71 181.032 413.119 181.032H426.966C428.375 181.032 429.735 180.763 430.788 180.276C431.841 179.789 432.515 179.119 432.681 178.391L433.741 173.877H434.176C434.584 173.877 434.976 173.793 435.266 173.643C435.556 173.493 435.721 173.29 435.724 173.077C435.724 172.864 435.561 172.659 435.27 172.508C434.98 172.357 434.586 172.272 434.176 172.272H405.973C405.765 172.268 405.557 172.285 405.362 172.324C405.166 172.362 404.988 172.421 404.838 172.496C404.687 172.571 404.567 172.662 404.486 172.761C404.404 172.861 404.362 172.969 404.362 173.077Z" fill="#F5F5F5"/>
<path d="M216.288 135.685H191.097V181.015H216.288V135.685Z" fill="#E6E6E6"/>
<path d="M211.506 181.015H216.287V173.937H206.48L211.506 181.015Z" fill="#F0F0F0"/>
<path d="M89.6639 135.685H64.4728V181.015H89.6639V135.685Z" fill="#E6E6E6"/>
<path d="M216.288 135.685H85.4867V177.531H216.288V135.685Z" fill="#F0F0F0"/>
<path d="M208.145 168.116H156.914C155.592 168.116 154.323 167.843 153.387 167.357C152.451 166.872 151.923 166.213 151.92 165.525V140.051C151.923 139.363 152.451 138.704 153.387 138.219C154.323 137.733 155.592 137.46 156.914 137.46H208.134C209.455 137.462 210.72 137.735 211.654 138.221C212.588 138.706 213.114 139.364 213.117 140.051V165.525C213.114 166.211 212.59 166.868 211.658 167.353C210.727 167.839 209.463 168.113 208.145 168.116ZM156.914 138.039C155.887 138.039 154.901 138.251 154.174 138.628C153.447 139.005 153.036 139.517 153.034 140.051V165.525C153.028 165.792 153.124 166.056 153.317 166.304C153.509 166.551 153.794 166.776 154.155 166.966C154.516 167.155 154.946 167.306 155.419 167.409C155.893 167.512 156.401 167.565 156.914 167.565H208.134C208.65 167.567 209.161 167.515 209.639 167.414C210.116 167.312 210.549 167.162 210.914 166.972C211.278 166.782 211.566 166.556 211.76 166.308C211.955 166.059 212.052 165.793 212.046 165.525V140.051C212.043 139.518 211.635 139.007 210.91 138.63C210.184 138.253 209.202 138.04 208.176 138.039H156.914Z" fill="#E0E0E0"/>
<path d="M144.849 168.116H93.6291C92.3075 168.116 91.04 167.843 90.1055 167.357C89.171 166.871 88.646 166.212 88.646 165.525V140.051C88.646 139.364 89.171 138.705 90.1055 138.219C91.04 137.733 92.3075 137.46 93.6291 137.46H144.849C146.17 137.462 147.435 137.735 148.369 138.221C149.303 138.706 149.829 139.364 149.832 140.051V165.525C149.829 166.212 149.303 166.87 148.369 167.355C147.435 167.841 146.17 168.114 144.849 168.116ZM93.6291 138.039C92.6018 138.039 91.6164 138.251 90.8889 138.628C90.1615 139.005 89.7514 139.517 89.7486 140.051V165.525C89.743 165.792 89.8393 166.056 90.0318 166.304C90.2243 166.551 90.5092 166.776 90.8701 166.966C91.231 167.155 91.6607 167.306 92.1342 167.409C92.6078 167.512 93.1159 167.565 93.6291 167.565H144.849C145.876 167.565 146.862 167.353 147.589 166.976C148.316 166.598 148.727 166.087 148.729 165.552V140.051C148.727 139.517 148.316 139.005 147.589 138.628C146.862 138.251 145.876 138.039 144.849 138.039H93.6291Z" fill="#E0E0E0"/>
<path d="M140.099 145.514C139.146 145.515 138.214 145.369 137.421 145.095C136.628 144.82 136.009 144.429 135.644 143.972C135.278 143.514 135.182 143.01 135.367 142.524C135.553 142.038 136.011 141.592 136.685 141.242C137.359 140.891 138.217 140.653 139.152 140.556C140.087 140.46 141.056 140.51 141.936 140.7C142.815 140.89 143.567 141.212 144.095 141.624C144.623 142.037 144.904 142.521 144.902 143.017C144.902 143.679 144.396 144.314 143.495 144.783C142.595 145.251 141.373 145.514 140.099 145.514ZM140.099 141.104C139.367 141.103 138.65 141.215 138.041 141.426C137.431 141.636 136.955 141.936 136.673 142.288C136.391 142.639 136.317 143.026 136.458 143.4C136.6 143.773 136.951 144.117 137.468 144.386C137.985 144.656 138.645 144.84 139.363 144.914C140.081 144.989 140.825 144.951 141.502 144.806C142.179 144.66 142.757 144.414 143.164 144.097C143.572 143.781 143.789 143.409 143.789 143.028C143.789 142.519 143.4 142.03 142.709 141.669C142.017 141.309 141.079 141.105 140.099 141.104Z" fill="#FAFAFA"/>
<path d="M161.675 145.514C160.72 145.517 159.784 145.373 158.988 145.099C158.191 144.825 157.569 144.434 157.201 143.976C156.833 143.517 156.736 143.012 156.922 142.525C157.107 142.038 157.567 141.591 158.244 141.24C158.92 140.889 159.781 140.651 160.719 140.555C161.656 140.46 162.627 140.512 163.507 140.704C164.388 140.896 165.139 141.221 165.664 141.635C166.189 142.05 166.465 142.537 166.457 143.034C166.448 143.691 165.942 144.32 165.046 144.785C164.151 145.249 162.94 145.511 161.675 145.514ZM161.675 141.104C160.945 141.106 160.232 141.221 159.626 141.433C159.021 141.646 158.55 141.947 158.273 142.298C157.996 142.649 157.925 143.036 158.069 143.408C158.213 143.78 158.566 144.122 159.084 144.39C159.601 144.658 160.259 144.841 160.976 144.915C161.692 144.989 162.435 144.951 163.11 144.806C163.785 144.661 164.362 144.415 164.769 144.1C165.176 143.784 165.394 143.413 165.396 143.034C165.398 142.779 165.302 142.528 165.116 142.293C164.929 142.058 164.655 141.845 164.309 141.666C163.963 141.486 163.552 141.344 163.1 141.248C162.648 141.152 162.164 141.103 161.675 141.104Z" fill="#FAFAFA"/>
<path d="M90.2683 181.015H85.4867V173.937H95.2832L90.2683 181.015Z" fill="#F0F0F0"/>
<path d="M530.116 347.653H0.00012207V347.918H530.116V347.653Z" fill="#EBEBEB"/>
<path d="M251.275 300.366H46.5653C44.9597 300.366 43.4198 299.728 42.2845 298.593C41.1492 297.458 40.5114 295.918 40.5114 294.312V6.53363C40.5253 4.93723 41.1693 3.41098 42.3031 2.28709C43.437 1.16319 44.9688 0.532654 46.5653 0.532715H251.275C252.88 0.532715 254.42 1.17054 255.556 2.30587C256.691 3.4412 257.329 4.98104 257.329 6.58664V294.312C257.329 295.918 256.691 297.458 255.556 298.593C254.42 299.728 252.88 300.366 251.275 300.366ZM46.5653 0.744762C45.0308 0.747565 43.56 1.35836 42.475 2.44338C41.39 3.52839 40.7792 4.99919 40.7764 6.53363V294.312C40.7792 295.847 41.39 297.318 42.475 298.403C43.56 299.488 45.0308 300.098 46.5653 300.101H251.275C252.809 300.098 254.28 299.488 255.365 298.403C256.45 297.318 257.061 295.847 257.064 294.312V6.53363C257.061 4.99919 256.45 3.52839 255.365 2.44338C254.28 1.35836 252.809 0.747565 251.275 0.744762H46.5653Z" fill="#EBEBEB"/>
<path d="M480.614 300.366H275.883C274.278 300.363 272.74 299.725 271.605 298.59C270.471 297.455 269.832 295.917 269.829 294.312V6.53363C269.846 4.9381 270.491 3.41345 271.624 2.29015C272.757 1.16685 274.287 0.535417 275.883 0.532715H480.614C482.207 0.538233 483.733 1.17124 484.862 2.29453C485.992 3.41782 486.633 4.9409 486.646 6.53363V294.312C486.647 295.914 486.012 297.451 484.881 298.586C483.75 299.72 482.216 300.361 480.614 300.366ZM275.883 0.744762C274.349 0.747565 272.878 1.35836 271.793 2.44338C270.708 3.52839 270.097 4.99919 270.094 6.53363V294.312C270.097 295.847 270.708 297.318 271.793 298.403C272.878 299.488 274.349 300.098 275.883 300.101H480.614C482.148 300.098 483.619 299.488 484.704 298.403C485.789 297.318 486.4 295.847 486.403 294.312V6.53363C486.4 4.99919 485.789 3.52839 484.704 2.44338C483.619 1.35836 482.148 0.747565 480.614 0.744762H275.883Z" fill="#EBEBEB"/>
<path d="M476.998 357.746H449.432V358.011H476.998V357.746Z" fill="#EBEBEB"/>
<path d="M377.475 354.873H320.116V355.138H377.475V354.873Z" fill="#EBEBEB"/>
<path d="M458.02 367.596H420.478V367.861H458.02V367.596Z" fill="#EBEBEB"/>
<path d="M80.7366 365.814H55.6198V366.079H80.7366V365.814Z" fill="#EBEBEB"/>
<path d="M117.569 365.814H90.173V366.079H117.569V365.814Z" fill="#EBEBEB"/>
<path d="M281.11 361.34H223.264V361.605H281.11V361.34Z" fill="#EBEBEB"/>
<path d="M159.48 28.1624H64.4728V233.625H159.48V28.1624Z" fill="#E6E6E6"/>
<path d="M163.117 28.1624H68.1094V233.625H163.117V28.1624Z" fill="#F5F5F5"/>
<path d="M156.586 227.539V34.2587L74.6298 34.2587L74.6298 227.539H156.586Z" fill="white"/>
<path d="M156.586 227.539V34.2587H153.84V227.539H156.586Z" fill="#E6E6E6"/>
<path d="M160.413 202.496H70.8022V210.671H160.413V202.496Z" fill="#F5F5F5"/>
<path d="M160.413 180.931H70.8022V189.106H160.413V180.931Z" fill="#F5F5F5"/>
<path d="M468.601 28.1624H373.594V233.625H468.601V28.1624Z" fill="#E6E6E6"/>
<path d="M472.238 28.1624H377.231V233.625H472.238V28.1624Z" fill="#F5F5F5"/>
<path d="M465.707 227.539V34.2588L383.751 34.2588V227.539H465.707Z" fill="white"/>
<path d="M465.707 227.539V34.2587H462.961V227.539H465.707Z" fill="#E6E6E6"/>
<path d="M469.534 202.496H379.923V210.671H469.534V202.496Z" fill="#F5F5F5"/>
<path d="M469.534 180.931H379.923V189.106H469.534V180.931Z" fill="#F5F5F5"/>
<path d="M222.543 155.316H201.243L203.756 104.064H222.543V155.316Z" fill="#F5F5F5"/>
<path d="M203.915 162.239L199.324 167.074H203.915L232.074 162.239H203.915Z" fill="#F5F5F5"/>
<path d="M199.324 162.239V167.074L227.483 162.239H199.324Z" fill="#E6E6E6"/>
<path d="M314.359 162.239L309.758 167.074H314.359L342.519 162.239H314.359Z" fill="#F5F5F5"/>
<path d="M309.758 162.239V167.074L337.928 162.239H309.758Z" fill="#E6E6E6"/>
<path d="M178.639 162.833H209.269V155.401H178.639V162.833Z" fill="#E6E6E6"/>
<path d="M361.55 155.39H209.269V162.822H361.55V155.39Z" fill="#F5F5F5"/>
<path d="M253.82 155.316H208.102L202.451 93.2075H248.169L253.82 155.316Z" fill="#E6E6E6"/>
<path d="M256.194 155.316H210.477L204.826 93.2075H250.543L256.194 155.316Z" fill="#F0F0F0"/>
<path d="M214.316 148.435L209.142 100.089H246.695L251.869 148.435H214.316Z" fill="#FAFAFA"/>
<path d="M285.404 155.316H259.619L262.662 93.2711H285.404V155.316Z" fill="#E0E0E0"/>
<path d="M323.275 155.316H267.942L261.093 80.1349H316.437L323.275 155.316Z" fill="#E6E6E6"/>
<path d="M326.148 155.316H270.804L263.955 80.1349H319.299L326.148 155.316Z" fill="#F0F0F0"/>
<path d="M275.448 146.993L269.193 88.4578H314.656L320.911 146.993H275.448Z" fill="#FAFAFA"/>
<path opacity="0.5" d="M319.723 155.316H307.467L308.909 125.81H319.723V155.316Z" fill="#E0E0E0"/>
<path d="M337.737 155.316H311.422L308.167 119.565H334.482L337.737 155.316Z" fill="#F0F0F0"/>
<path d="M339.094 155.316H312.779L309.524 119.565H335.839L339.094 155.316Z" fill="#F5F5F5"/>
<path d="M314.995 151.361L312.016 123.52H333.634L336.613 151.361H314.995Z" fill="white"/>
<path d="M350.937 260.47H325.746V347.653H350.937V260.47Z" fill="#E6E6E6"/>
<path d="M346.155 347.653H350.937V334.039H341.13L346.155 347.653Z" fill="#F0F0F0"/>
<path d="M224.314 260.47H199.122V347.653H224.314V260.47Z" fill="#E6E6E6"/>
<path d="M350.937 260.47H220.136V340.952H350.937V260.47Z" fill="#F0F0F0"/>
<path d="M342.794 322.843H291.564C290.243 322.84 288.977 322.314 288.043 321.381C287.109 320.447 286.583 319.181 286.581 317.86V268.867C286.583 267.546 287.109 266.28 288.043 265.346C288.977 264.412 290.243 263.887 291.564 263.884H342.784C344.104 263.887 345.37 264.412 346.304 265.346C347.238 266.28 347.764 267.546 347.767 268.867V317.86C347.764 319.179 347.239 320.443 346.308 321.377C345.376 322.31 344.113 322.838 342.794 322.843ZM291.564 264.997C290.536 264.997 289.551 265.404 288.824 266.13C288.096 266.855 287.686 267.839 287.683 268.867V317.86C287.678 318.373 287.774 318.882 287.966 319.358C288.159 319.834 288.444 320.267 288.805 320.631C289.166 320.996 289.595 321.286 290.069 321.484C290.543 321.681 291.051 321.783 291.564 321.783H342.784C343.299 321.787 343.811 321.689 344.288 321.493C344.765 321.297 345.199 321.008 345.563 320.643C345.928 320.278 346.215 319.843 346.41 319.366C346.604 318.888 346.701 318.376 346.696 317.86V268.867C346.693 267.839 346.283 266.855 345.556 266.13C344.828 265.404 343.843 264.997 342.815 264.997H291.564Z" fill="#E0E0E0"/>
<path d="M279.498 322.843H228.278C226.958 322.84 225.692 322.314 224.758 321.381C223.824 320.447 223.298 319.181 223.295 317.86V268.867C223.298 267.546 223.824 266.28 224.758 265.346C225.692 264.412 226.958 263.887 228.278 263.884H279.498C280.82 263.884 282.087 264.409 283.022 265.343C283.956 266.278 284.481 267.545 284.481 268.867V317.86C284.481 319.182 283.956 320.449 283.022 321.384C282.087 322.318 280.82 322.843 279.498 322.843ZM228.278 264.997C227.252 264.997 226.268 265.405 225.542 266.13C224.816 266.856 224.408 267.84 224.408 268.867V317.86C224.408 318.886 224.816 319.871 225.542 320.597C226.268 321.322 227.252 321.73 228.278 321.73H279.498C280.525 321.73 281.511 321.323 282.238 320.597C282.966 319.872 283.376 318.887 283.379 317.86V268.867C283.376 267.839 282.966 266.855 282.238 266.13C281.511 265.404 280.525 264.997 279.498 264.997H228.278Z" fill="#E0E0E0"/>
<path d="M274.749 279.374C273.796 279.376 272.864 279.095 272.071 278.567C271.277 278.039 270.659 277.287 270.293 276.407C269.927 275.527 269.831 274.559 270.017 273.624C270.202 272.689 270.661 271.83 271.335 271.157C272.008 270.483 272.867 270.024 273.802 269.839C274.736 269.653 275.705 269.75 276.585 270.115C277.465 270.481 278.217 271.1 278.745 271.893C279.273 272.686 279.554 273.618 279.552 274.571C279.549 275.844 279.042 277.064 278.142 277.964C277.242 278.864 276.022 279.371 274.749 279.374ZM274.749 270.892C274.017 270.892 273.301 271.109 272.693 271.515C272.084 271.922 271.61 272.5 271.33 273.176C271.05 273.852 270.977 274.596 271.12 275.314C271.262 276.032 271.615 276.691 272.132 277.209C272.65 277.726 273.309 278.078 274.027 278.221C274.745 278.364 275.489 278.291 276.165 278.011C276.841 277.731 277.419 277.256 277.825 276.648C278.232 276.039 278.449 275.324 278.449 274.592C278.449 273.611 278.059 272.67 277.365 271.976C276.671 271.282 275.73 270.892 274.749 270.892Z" fill="#FAFAFA"/>
<path d="M296.324 279.374C295.369 279.38 294.434 279.102 293.637 278.575C292.841 278.048 292.219 277.296 291.851 276.415C291.483 275.533 291.385 274.562 291.571 273.625C291.757 272.688 292.217 271.828 292.893 271.153C293.569 270.478 294.431 270.02 295.368 269.837C296.305 269.653 297.276 269.753 298.157 270.122C299.037 270.492 299.788 271.116 300.313 271.914C300.838 272.712 301.114 273.648 301.106 274.603C301.098 275.867 300.591 277.078 299.696 277.971C298.8 278.864 297.589 279.368 296.324 279.374ZM296.324 270.892C295.594 270.896 294.881 271.116 294.276 271.525C293.67 271.934 293.199 272.512 292.922 273.188C292.645 273.864 292.574 274.607 292.718 275.323C292.863 276.039 293.216 276.696 293.733 277.212C294.25 277.728 294.908 278.079 295.625 278.221C296.341 278.364 297.084 278.291 297.759 278.012C298.434 277.733 299.012 277.26 299.418 276.653C299.825 276.047 300.044 275.333 300.046 274.603C300.047 274.114 299.952 273.63 299.765 273.178C299.578 272.727 299.304 272.317 298.958 271.972C298.612 271.627 298.201 271.354 297.749 271.168C297.297 270.983 296.813 270.889 296.324 270.892Z" fill="#FAFAFA"/>
<path d="M224.918 347.653H220.136V334.039H229.943L224.918 347.653Z" fill="#F0F0F0"/>
<path d="M419.194 281.791C421.177 267.351 440.654 263.237 465.378 262.707C488.905 262.198 496.443 253.875 496.443 253.875C496.443 253.875 496.369 287.58 462.462 299.794C430.274 311.382 417.212 296.253 419.194 281.791Z" fill="#E6E6E6"/>
<path d="M424.305 303.388C423.891 297.44 414.413 286.53 391.607 291.492C375.12 295.076 368.992 286.53 368.992 286.53C368.992 286.53 370.519 310.661 395.318 317.913C418.866 324.794 425.036 313.821 424.305 303.388Z" fill="#E6E6E6"/>
<path d="M415.802 261.244C414.741 255.391 404.139 245.542 382.033 252.9C366.013 258.201 359.016 250.376 359.016 250.376C359.016 250.376 363.098 274.2 388.522 278.769C412.663 283.116 417.636 271.549 415.802 261.244Z" fill="#E6E6E6"/>
<path d="M425.45 311.085C427.327 308.191 435.183 305.328 445.329 314.266C452.677 320.702 458.179 318.093 458.179 318.093C458.179 318.093 450.641 329.883 436.052 326.575C422.195 323.448 422.153 316.164 425.45 311.085Z" fill="#E6E6E6"/>
<path d="M419.099 339.902C418.972 339.902 418.847 339.875 418.731 339.822C418.616 339.769 418.514 339.691 418.431 339.595C416.777 337.644 418.134 332.958 420 326.48C422.407 318.178 425.397 307.83 422.863 300.324C421.457 296.364 419.818 292.491 417.954 288.725C414.381 281.155 411.285 274.613 413.862 267.796C413.902 267.687 413.963 267.587 414.042 267.502C414.12 267.417 414.215 267.349 414.321 267.3C414.426 267.252 414.54 267.225 414.656 267.221C414.772 267.217 414.887 267.236 414.996 267.276C415.105 267.316 415.204 267.378 415.289 267.457C415.374 267.536 415.442 267.631 415.489 267.737C415.537 267.842 415.562 267.956 415.565 268.072C415.568 268.188 415.547 268.303 415.505 268.411C413.194 274.539 415.993 280.466 419.544 287.972C421.437 291.8 423.101 295.737 424.527 299.762C427.231 307.788 424.167 318.422 421.697 326.968C420.233 332.014 418.728 337.22 419.778 338.46C419.925 338.64 419.997 338.87 419.977 339.102C419.958 339.334 419.848 339.549 419.672 339.701C419.51 339.832 419.307 339.903 419.099 339.902Z" fill="#E6E6E6"/>
<path d="M404.362 332.385C404.365 332.794 404.529 333.185 404.819 333.473C405.109 333.761 405.501 333.923 405.91 333.923H406.345L407.405 342.606C407.571 344.005 408.244 345.295 409.297 346.231C410.351 347.167 411.71 347.684 413.119 347.684H426.966C428.375 347.684 429.735 347.167 430.788 346.231C431.841 345.295 432.515 344.005 432.681 342.606L433.741 333.923H434.176C434.584 333.923 434.976 333.761 435.266 333.473C435.556 333.185 435.721 332.794 435.724 332.385C435.724 331.975 435.561 331.581 435.27 331.291C434.98 331 434.586 330.837 434.176 330.837H405.973C405.765 330.829 405.557 330.862 405.362 330.936C405.166 331.01 404.988 331.123 404.838 331.268C404.687 331.412 404.567 331.586 404.486 331.778C404.404 331.97 404.362 332.177 404.362 332.385Z" fill="#F5F5F5"/>
<path d="M216.288 260.47H191.097V347.653H216.288V260.47Z" fill="#E6E6E6"/>
<path d="M211.506 347.653H216.287V334.039H206.48L211.506 347.653Z" fill="#F0F0F0"/>
<path d="M89.6639 260.47H64.4728V347.653H89.6639V260.47Z" fill="#E6E6E6"/>
<path d="M216.288 260.47H85.4867V340.952H216.288V260.47Z" fill="#F0F0F0"/>
<path d="M208.145 322.843H156.914C155.592 322.843 154.323 322.319 153.387 321.384C152.451 320.45 151.923 319.183 151.92 317.86V268.867C151.923 267.544 152.451 266.277 153.387 265.343C154.323 264.408 155.592 263.884 156.914 263.884H208.134C209.455 263.887 210.72 264.412 211.654 265.346C212.588 266.28 213.114 267.546 213.117 268.867V317.86C213.114 319.179 212.59 320.443 211.658 321.377C210.727 322.31 209.463 322.838 208.145 322.843ZM156.914 264.997C155.887 264.997 154.901 265.404 154.174 266.13C153.447 266.855 153.036 267.839 153.034 268.867V317.86C153.028 318.373 153.124 318.882 153.317 319.358C153.509 319.834 153.794 320.267 154.155 320.631C154.516 320.996 154.946 321.286 155.419 321.484C155.893 321.681 156.401 321.783 156.914 321.783H208.134C208.65 321.787 209.161 321.689 209.639 321.493C210.116 321.297 210.549 321.008 210.914 320.643C211.278 320.278 211.566 319.843 211.76 319.366C211.955 318.888 212.052 318.376 212.046 317.86V268.867C212.043 267.841 211.635 266.859 210.91 266.133C210.184 265.408 209.202 265 208.176 264.997H156.914Z" fill="#E0E0E0"/>
<path d="M144.849 322.843H93.6291C92.3075 322.843 91.04 322.318 90.1055 321.384C89.171 320.449 88.646 319.182 88.646 317.86V268.867C88.646 267.545 89.171 266.278 90.1055 265.343C91.04 264.409 92.3075 263.884 93.6291 263.884H144.849C146.17 263.887 147.435 264.412 148.369 265.346C149.303 266.28 149.829 267.546 149.832 268.867V317.86C149.829 319.181 149.303 320.447 148.369 321.381C147.435 322.314 146.17 322.84 144.849 322.843ZM93.6291 264.997C92.6018 264.997 91.6164 265.404 90.8889 266.13C90.1615 266.855 89.7514 267.839 89.7486 268.867V317.86C89.743 318.373 89.8393 318.882 90.0318 319.358C90.2243 319.834 90.5092 320.267 90.8701 320.631C91.231 320.996 91.6607 321.286 92.1342 321.484C92.6078 321.681 93.1159 321.783 93.6291 321.783H144.849C145.876 321.783 146.862 321.376 147.589 320.65C148.316 319.925 148.727 318.94 148.729 317.913V268.867C148.727 267.839 148.316 266.855 147.589 266.13C146.862 265.404 145.876 264.997 144.849 264.997H93.6291Z" fill="#E0E0E0"/>
<path d="M140.099 279.374C139.146 279.376 138.214 279.095 137.421 278.567C136.628 278.039 136.009 277.287 135.644 276.407C135.278 275.527 135.182 274.559 135.367 273.624C135.553 272.689 136.011 271.83 136.685 271.157C137.359 270.483 138.217 270.024 139.152 269.839C140.087 269.653 141.056 269.75 141.936 270.115C142.815 270.481 143.567 271.1 144.095 271.893C144.623 272.686 144.904 273.618 144.902 274.571C144.902 275.845 144.396 277.066 143.495 277.967C142.595 278.868 141.373 279.374 140.099 279.374ZM140.099 270.892C139.367 270.89 138.65 271.105 138.041 271.51C137.431 271.916 136.955 272.493 136.673 273.169C136.391 273.845 136.317 274.589 136.458 275.307C136.6 276.026 136.951 276.686 137.468 277.205C137.985 277.723 138.645 278.077 139.363 278.22C140.081 278.364 140.825 278.291 141.502 278.012C142.179 277.732 142.757 277.258 143.164 276.649C143.572 276.04 143.789 275.324 143.789 274.592C143.789 273.613 143.4 272.673 142.709 271.979C142.017 271.286 141.079 270.895 140.099 270.892Z" fill="#FAFAFA"/>
<path d="M161.675 279.374C160.72 279.38 159.784 279.102 158.988 278.575C158.191 278.048 157.569 277.296 157.201 276.415C156.833 275.533 156.736 274.562 156.922 273.625C157.107 272.688 157.567 271.828 158.244 271.153C158.92 270.478 159.781 270.02 160.719 269.837C161.656 269.653 162.627 269.753 163.507 270.122C164.388 270.492 165.139 271.116 165.664 271.914C166.189 272.712 166.465 273.648 166.457 274.603C166.448 275.867 165.942 277.078 165.046 277.971C164.151 278.864 162.94 279.368 161.675 279.374ZM161.675 270.892C160.945 270.896 160.232 271.116 159.626 271.525C159.021 271.934 158.55 272.512 158.273 273.188C157.996 273.864 157.925 274.607 158.069 275.323C158.213 276.039 158.566 276.696 159.084 277.212C159.601 277.728 160.259 278.079 160.976 278.221C161.692 278.364 162.435 278.291 163.11 278.012C163.785 277.733 164.362 277.26 164.769 276.653C165.176 276.047 165.394 275.333 165.396 274.603C165.398 274.114 165.302 273.63 165.116 273.178C164.929 272.727 164.655 272.317 164.309 271.972C163.963 271.627 163.552 271.354 163.1 271.168C162.648 270.983 162.164 270.889 161.675 270.892Z" fill="#FAFAFA"/>
<path d="M90.2683 347.653H85.4867V334.039H95.2832L90.2683 347.653Z" fill="#F0F0F0"/>
<path d="M265.059 395.533C378.591 395.533 470.627 390.159 470.627 383.531C470.627 376.902 378.591 371.529 265.059 371.529C151.526 371.529 59.4904 376.902 59.4904 383.531C59.4904 390.159 151.526 395.533 265.059 395.533Z" fill="#F5F5F5"/>
<path d="M274.94 367.172L282.585 364.659L278.8 346.296L271.155 348.808L274.94 367.172Z" fill="#FF8B7B"/>
<path d="M213.839 374.572L221.886 374.636L222.565 356.028L214.518 355.965L213.839 374.572Z" fill="#FF8B7B"/>
<path d="M222.968 373.734L213.161 373.66C213 373.659 212.844 373.713 212.718 373.813C212.593 373.914 212.506 374.054 212.471 374.211L210.828 381.347C210.79 381.521 210.791 381.701 210.832 381.874C210.873 382.048 210.953 382.21 211.065 382.348C211.177 382.487 211.318 382.598 211.479 382.674C211.64 382.751 211.816 382.79 211.994 382.789C215.175 382.789 217.455 382.587 221.43 382.619C223.869 382.619 229.584 383.541 235.807 383.064C239.105 382.81 238.49 379.449 237.079 379.354C230.135 378.845 226.244 376.046 224.272 374.243C223.913 373.922 223.45 373.741 222.968 373.734Z" fill="#263238"/>
<path d="M282.627 363.492L274.283 366.238C274.13 366.286 273.999 366.385 273.91 366.518C273.821 366.651 273.781 366.811 273.795 366.97L274.527 374.264C274.545 374.44 274.602 374.61 274.694 374.761C274.787 374.912 274.912 375.04 275.061 375.136C275.209 375.232 275.378 375.293 275.553 375.314C275.729 375.336 275.907 375.318 276.075 375.261C279.065 374.201 283.359 372.61 287.133 371.37C291.565 369.907 293.579 369.25 298.796 367.5C301.976 366.44 301.754 363.015 300.354 363.153C293.993 363.811 290.897 364.966 284.684 363.482C284.01 363.296 283.299 363.3 282.627 363.492Z" fill="#263238"/>
<path d="M238.362 122.205L251.965 128.004C254.234 128.937 256.492 129.881 258.74 130.729C259.853 131.143 260.977 131.556 262.058 131.927C262.61 132.129 263.119 132.288 263.67 132.457L264.062 132.574L264.264 132.638H264.317H264.243H264.094C263.664 132.592 263.228 132.628 262.811 132.744C262.037 133.009 261.942 133.253 261.984 133.231C262.185 133.089 262.361 132.913 262.504 132.712C263.057 131.939 263.536 131.115 263.935 130.252C264.923 128.157 265.783 126.005 266.511 123.806C268.038 119.257 269.448 114.423 270.752 109.684L276.743 110.458C276.684 115.69 276.202 120.909 275.301 126.064C274.837 128.771 274.171 131.44 273.307 134.048C272.813 135.541 272.181 136.986 271.42 138.363C270.917 139.25 270.312 140.075 269.618 140.823C268.533 141.997 267.147 142.852 265.61 143.293C264.577 143.586 263.493 143.658 262.43 143.505L262.048 143.441H261.793L261.528 143.378L261.009 143.272C260.32 143.134 259.62 142.985 258.963 142.816C257.616 142.508 256.344 142.137 255.061 141.756C252.516 141.003 250.046 140.176 247.639 139.285C242.741 137.525 238.097 135.564 233.326 133.348L238.362 122.205Z" fill="#FF8B7B"/>
<path d="M226.891 130.941C229.372 138.214 246.664 144.417 246.664 144.417L253.163 125.417C253.163 125.417 242.105 119.3 236.009 119.152C229.435 118.982 224.261 123.117 226.891 130.941Z" fill="#4762FF"/>
<path d="M233.75 119.279C231.895 123.233 229.976 128.1 228.184 133.221L228.576 133.708C230.253 128.78 232.185 123.942 234.365 119.215C234.153 119.279 233.951 119.279 233.75 119.279Z" fill="white"/>
<path d="M240.79 120.021C238.047 125.875 235.672 131.895 233.676 138.045L234.132 138.342C236.133 132.155 238.527 126.103 241.299 120.222L240.79 120.021Z" fill="white"/>
<path d="M246.473 122.141C243.644 128.31 241.201 134.648 239.157 141.12L239.624 141.353C241.672 134.873 244.123 128.528 246.961 122.353L246.473 122.141Z" fill="white"/>
<path d="M251.605 124.58C248.856 130.754 246.47 137.084 244.459 143.537L244.936 143.728C246.947 137.29 249.329 130.975 252.071 124.813L251.605 124.58Z" fill="white"/>
<path opacity="0.2" d="M239.316 132.616L233.082 137.61C237.228 140.294 241.654 142.52 246.282 144.247C246.282 140.95 243.441 135.649 239.316 132.616Z" fill="black"/>
<path d="M271.781 115.419L279.202 112.239L276.159 104.033C274.183 104.915 272.464 106.287 271.166 108.019C270.689 108.65 270.384 109.395 270.282 110.179C270.18 110.963 270.283 111.761 270.583 112.493L271.781 115.419Z" fill="#FF8B7B"/>
<path d="M283.327 107.849L282.108 99.728L276.16 104.022L279.203 112.228L283.327 107.849Z" fill="#FF8B7B"/>
<path opacity="0.2" d="M278.8 346.296L280.75 355.763L273.106 358.276L271.155 348.808L278.8 346.296Z" fill="black"/>
<path opacity="0.2" d="M214.507 355.965L222.565 356.028L222.215 365.624L214.168 365.56L214.507 355.965Z" fill="black"/>
<path d="M193.44 124.643C193.176 124.734 192.932 124.876 192.723 125.061C192.514 125.246 192.343 125.471 192.221 125.722C192.099 125.973 192.028 126.246 192.011 126.525C191.995 126.804 192.034 127.083 192.126 127.347C194.8 135.185 196.946 143.194 198.551 151.319C199.791 157.479 200.671 163.374 201.403 168.728C203.057 181.281 203.523 190.908 204.149 194.173L246.696 187.812C248.986 141.745 236.03 119.109 236.03 119.109C232.597 118.742 229.145 118.586 225.693 118.642C224.961 118.642 224.23 118.642 223.477 118.727C217.401 119.267 211.362 120.159 205.389 121.399C204.255 121.622 203.11 121.876 201.997 122.141C198.561 123.011 195.391 123.997 193.44 124.643Z" fill="#4762FF"/>
<path d="M192.751 129.245C201.795 125.364 223.657 121.95 237.408 121.972C237.334 121.791 237.249 121.611 237.175 121.442C223.392 121.442 201.678 124.877 192.645 128.736L192.751 129.245Z" fill="white"/>
<path d="M240.069 128.906L239.889 128.376C226.604 128.153 204.551 131.45 194.649 135.309C194.649 135.479 194.744 135.649 194.797 135.818C204.626 132.002 226.89 128.63 240.069 128.906Z" fill="white"/>
<path d="M242.126 135.85C242.126 135.67 242.031 135.5 241.988 135.32C229.075 134.928 206.863 138.161 196.398 142.01L196.526 142.519C206.926 138.66 229.287 135.415 242.126 135.85Z" fill="white"/>
<path d="M243.737 142.795C243.737 142.614 243.663 142.445 243.621 142.264C230.898 141.787 208.707 144.957 198.031 148.796C198.031 148.965 198.105 149.135 198.137 149.304C208.739 145.466 231.131 142.275 243.737 142.795Z" fill="white"/>
<path d="M244.967 149.718C244.967 149.548 244.914 149.368 244.893 149.188C232.287 148.7 210.149 151.849 199.377 155.655L199.473 156.175C210.16 152.358 232.414 149.199 244.967 149.718Z" fill="white"/>
<path d="M245.88 156.631L245.816 156.101C233.157 155.666 211.21 158.804 200.533 162.589C200.533 162.769 200.586 162.95 200.608 163.119C211.199 159.324 233.252 156.164 245.88 156.631Z" fill="white"/>
<path d="M246.505 163.533C246.505 163.352 246.505 163.183 246.505 163.003C233.676 162.674 212.016 165.823 201.562 169.587L201.625 170.127C211.92 166.342 233.697 163.183 246.505 163.533Z" fill="white"/>
<path d="M246.855 170.446C246.855 170.265 246.855 170.096 246.855 169.915C233.793 169.725 212.461 172.895 202.325 176.648C202.325 176.828 202.325 177.008 202.378 177.178C212.365 173.425 233.793 170.233 246.855 170.446Z" fill="white"/>
<path d="M246.961 177.358V176.828C233.613 176.828 212.673 180.009 203.046 183.751C203.046 183.932 203.046 184.112 203.099 184.292C212.578 180.56 233.602 177.337 246.961 177.358Z" fill="white"/>
<path d="M246.844 184.281C246.844 184.112 246.844 183.932 246.844 183.762C233.21 183.953 212.769 187.186 203.704 190.887C203.704 191.067 203.704 191.258 203.704 191.427C212.694 187.727 233.252 184.472 246.844 184.281Z" fill="white"/>
<path opacity="0.2" d="M203.11 136.041C204.17 144.396 202.357 151.223 199.25 154.998C199.038 153.779 198.794 152.559 198.551 151.329C197.618 146.707 196.504 141.925 195.147 137.122L203.11 136.041Z" fill="black"/>
<path d="M225.746 118.664C225.014 118.664 224.283 118.664 223.53 118.749C217.437 119.279 211.38 120.164 205.389 121.399C204.478 121.579 203.566 121.781 202.665 121.982L204.096 123.042C207.764 125.831 219.999 129.33 221.388 129.711L223.212 130.231L223.922 128.471C225.237 125.311 226.477 121.219 225.746 118.664Z" fill="white"/>
<path d="M204.159 100.799C206.163 106.45 208.888 116.936 205.389 121.431C208.824 124.06 221.96 127.792 221.96 127.792C221.96 127.792 224.876 120.562 223.477 118.791C216.755 118.197 216.214 113.363 216.67 108.666L204.159 100.799Z" fill="#FF8B7B"/>
<path opacity="0.2" d="M209.259 103.99L216.681 108.623C216.561 109.718 216.536 110.821 216.607 111.921C214.073 111.921 210.245 109.705 209.609 107.15C209.306 106.125 209.188 105.056 209.259 103.99Z" fill="black"/>
<path d="M214.645 82.319C215.588 80.4848 219.278 80.6226 220.72 84.3758C222.162 88.1291 219.437 93.0591 219.437 93.0591L214.645 82.319Z" fill="#263238"/>
<path d="M199.43 94.4375C202.728 101.7 204.286 106.1 209.503 108.517C217.348 112.101 225.247 105.188 224.187 97.0774C223.233 89.783 218.006 79.1171 209.587 78.9369C207.731 78.8865 205.892 79.3118 204.247 80.1724C202.601 81.033 201.203 82.3002 200.185 83.8536C199.167 85.407 198.563 87.195 198.431 89.0474C198.299 90.8999 198.643 92.7554 199.43 94.4375Z" fill="#FF8B7B"/>
<path d="M200.883 100.523C202.929 99.1025 205.824 97.2895 205.824 97.2895C206.226 95.6019 206.121 93.8329 205.521 92.205C204.921 90.577 203.853 89.1626 202.452 88.1397C205.145 87.6308 225.342 82.9976 217.857 76.6786C207.997 68.3558 197.321 82.2449 192.147 80.1456C192.1 80.9901 192.334 81.8264 192.814 82.523C193.294 83.2196 193.991 83.7371 194.797 83.9942C192.359 84.1109 186.506 90.5147 192.581 93.5363C198.656 96.558 200.883 100.523 200.883 100.523Z" fill="#263238"/>
<path d="M217.115 99.6431C216.247 100 215.306 100.142 214.372 100.055C213.437 99.968 212.538 99.6557 211.751 99.1448C211.73 99.1269 211.714 99.1049 211.703 99.0802C211.692 99.0556 211.686 99.0288 211.686 99.0017C211.686 98.9746 211.692 98.9479 211.703 98.9232C211.714 98.8985 211.73 98.8765 211.751 98.8586C211.79 98.8228 211.841 98.803 211.894 98.803C211.947 98.803 211.998 98.8228 212.037 98.8586C212.774 99.3197 213.609 99.6003 214.475 99.6777C215.341 99.7551 216.213 99.627 217.02 99.3039C217.045 99.2937 217.072 99.2886 217.099 99.289C217.126 99.2893 217.152 99.2951 217.177 99.306C217.202 99.3169 217.224 99.3326 217.243 99.3523C217.261 99.372 217.276 99.3952 217.285 99.4205C217.286 99.4714 217.27 99.5213 217.239 99.5618C217.209 99.6023 217.165 99.631 217.115 99.6431Z" fill="#263238"/>
<path d="M197.893 101.658C198.58 102.376 199.401 102.952 200.311 103.352C201.221 103.753 202.201 103.969 203.194 103.99C205.855 103.99 206.513 101.488 205.198 99.3251C204.021 97.3848 201.222 95.0311 198.837 96.0277C196.451 97.0244 196.207 99.8658 197.893 101.658Z" fill="#FF8B7B"/>
<path d="M283.083 353.06L270.148 357.301C270.148 357.301 255.718 310.651 249.495 282.618C247.841 275.196 243.568 265.029 240.186 253.992C235.945 240.028 230.729 224.973 226.53 213.194C222.098 200.789 218.78 191.989 218.78 191.989L246.759 187.844C246.759 187.844 267.137 253.038 270.646 277.338C274.241 302.582 283.083 353.06 283.083 353.06Z" fill="#263238"/>
<path opacity="0.2" d="M240.133 253.928C235.892 239.965 230.676 224.91 226.477 213.13L228.905 206.621C236.528 214.392 240.398 239.901 240.133 253.928Z" fill="black"/>
<path d="M231.609 190.07C231.609 190.07 234.376 259.325 232.796 282.83C231.068 308.583 225.915 363.789 225.915 363.789L211.189 363.683C211.189 363.683 210.043 312.866 211.316 287.802C212.758 259.176 204.159 194.142 204.159 194.142L231.609 190.07Z" fill="#263238"/>
<path d="M226.922 364.129L209.588 363.991L209.619 358.806L229.011 358.615L226.922 364.129Z" fill="#4762FF"/>
<path d="M283.942 353.092L269.342 357.894L266.957 352.901L283.603 347.398L283.942 353.092Z" fill="#4762FF"/>
<path d="M211.517 92.2109C211.75 92.8153 212.259 93.1863 212.652 93.0273C213.044 92.8683 213.182 92.2639 212.959 91.6596C212.737 91.0553 212.217 90.6842 211.814 90.8326C211.411 90.9811 211.284 91.6066 211.517 92.2109Z" fill="#263238"/>
<path d="M218.409 89.5922C218.642 90.1965 219.151 90.5676 219.554 90.4191C219.957 90.2707 220.084 89.6558 219.851 89.0514C219.618 88.4471 219.109 88.076 218.716 88.2245C218.324 88.3729 218.144 88.9878 218.409 89.5922Z" fill="#263238"/>
<path d="M216.289 90.7267C217.719 92.3012 219.356 93.6744 221.155 94.8086C220.466 96.2187 218.335 96.3353 218.335 96.3353L216.289 90.7267Z" fill="#FF5652"/>
<path d="M208.548 90.8009C208.617 90.7883 208.682 90.7569 208.734 90.7101C208.786 90.6633 208.825 90.603 208.845 90.5358C208.971 90.0822 209.201 89.6644 209.518 89.3163C209.835 88.9682 210.229 88.6995 210.669 88.532C210.717 88.5174 210.762 88.4935 210.8 88.4617C210.839 88.4298 210.871 88.3906 210.895 88.3463C210.919 88.3019 210.933 88.2534 210.938 88.2034C210.943 88.1534 210.938 88.1029 210.923 88.0549C210.909 88.0068 210.885 87.962 210.853 87.9232C210.821 87.8844 210.782 87.8522 210.737 87.8286C210.693 87.805 210.645 87.7903 210.595 87.7855C210.545 87.7806 210.494 87.7857 210.446 87.8004C209.878 88.01 209.37 88.3538 208.964 88.8024C208.558 89.251 208.266 89.7911 208.114 90.3768C208.099 90.4241 208.094 90.4739 208.099 90.5231C208.104 90.5724 208.119 90.6202 208.142 90.6637C208.166 90.7072 208.198 90.7454 208.237 90.7763C208.276 90.8071 208.32 90.8299 208.368 90.8433C208.431 90.8456 208.493 90.8309 208.548 90.8009Z" fill="#263238"/>
<path d="M220.412 86.1146C220.492 86.1016 220.563 86.0601 220.614 85.998C220.651 85.9642 220.68 85.9233 220.7 85.8776C220.72 85.832 220.73 85.7828 220.73 85.7329C220.73 85.6831 220.72 85.6339 220.7 85.5882C220.68 85.5426 220.651 85.5016 220.614 85.4679C220.187 85.0368 219.663 84.7153 219.085 84.5307C218.507 84.3461 217.893 84.3039 217.295 84.4077C217.247 84.4188 217.201 84.4396 217.161 84.4687C217.121 84.4978 217.087 84.5348 217.061 84.5773C217.035 84.6198 217.018 84.667 217.011 84.7162C217.004 84.7654 217.007 84.8155 217.02 84.8635C217.045 84.9604 217.106 85.044 217.191 85.0972C217.276 85.1504 217.377 85.1693 217.476 85.1498C217.947 85.0697 218.431 85.104 218.887 85.2497C219.343 85.3955 219.757 85.6485 220.094 85.9874C220.135 86.0307 220.184 86.0645 220.239 86.0865C220.294 86.1085 220.353 86.1181 220.412 86.1146Z" fill="#263238"/>
<path d="M225.618 375.134C226.165 375.18 226.711 375.038 227.166 374.731C227.312 374.612 227.426 374.459 227.496 374.285C227.567 374.11 227.592 373.921 227.569 373.734C227.572 373.623 227.544 373.514 227.487 373.419C227.431 373.323 227.349 373.245 227.251 373.194C226.361 372.727 223.752 374.254 223.466 374.477C223.432 374.491 223.403 374.516 223.383 374.547C223.362 374.578 223.352 374.614 223.352 374.651C223.352 374.689 223.362 374.725 223.383 374.756C223.403 374.787 223.432 374.812 223.466 374.826C224.17 375.009 224.892 375.112 225.618 375.134ZM226.827 373.48C226.907 373.462 226.991 373.462 227.071 373.48C227.11 373.505 227.141 373.539 227.161 373.58C227.182 373.621 227.191 373.667 227.188 373.713C227.206 373.841 227.192 373.972 227.145 374.092C227.099 374.213 227.022 374.32 226.922 374.402C226.021 374.8 225.002 374.842 224.07 374.519C224.912 373.995 225.849 373.642 226.827 373.48Z" fill="#4762FF"/>
<path d="M223.561 374.795H223.646C224.484 374.349 226.106 372.589 225.947 371.699C225.92 371.557 225.845 371.429 225.735 371.337C225.625 371.244 225.486 371.192 225.343 371.19C225.197 371.172 225.049 371.184 224.909 371.226C224.768 371.268 224.638 371.339 224.526 371.434C223.593 372.186 223.381 374.508 223.37 374.614C223.368 374.649 223.374 374.684 223.389 374.716C223.404 374.747 223.427 374.774 223.455 374.795C223.49 374.805 223.527 374.805 223.561 374.795ZM225.205 371.54H225.29C225.544 371.54 225.565 371.688 225.565 371.73C225.671 372.261 224.632 373.586 223.795 374.211C223.864 373.296 224.204 372.421 224.77 371.699C224.9 371.62 225.054 371.59 225.205 371.614V371.54Z" fill="#4762FF"/>
<path d="M283.719 364.298C285.023 364.139 287.313 363.715 287.907 362.708C287.997 362.559 288.049 362.39 288.058 362.216C288.067 362.042 288.033 361.869 287.96 361.711C287.924 361.613 287.863 361.526 287.783 361.459C287.703 361.392 287.607 361.348 287.504 361.33C286.444 361.128 283.846 363.683 283.56 363.98C283.537 364.011 283.525 364.048 283.525 364.086C283.525 364.124 283.537 364.161 283.56 364.192C283.575 364.222 283.597 364.248 283.625 364.267C283.653 364.285 283.685 364.296 283.719 364.298ZM287.408 361.701H287.462C287.503 361.709 287.541 361.729 287.573 361.757C287.604 361.784 287.628 361.82 287.642 361.86C287.694 361.961 287.721 362.074 287.721 362.188C287.721 362.303 287.694 362.415 287.642 362.517C287.313 363.079 286.083 363.577 284.302 363.842C285.299 362.856 286.783 361.658 287.408 361.701Z" fill="#4762FF"/>
<path d="M283.719 364.298C283.763 364.317 283.813 364.317 283.857 364.298C284.641 363.577 285.924 361.319 285.5 360.503C285.394 360.312 285.172 360.11 284.663 360.227C284.476 360.263 284.299 360.339 284.144 360.449C283.989 360.558 283.858 360.699 283.761 360.863C283.051 361.976 283.518 364.107 283.539 364.192C283.543 364.226 283.557 364.257 283.58 364.282C283.603 364.307 283.633 364.324 283.666 364.33L283.719 364.298ZM284.959 360.524C285.108 360.524 285.15 360.609 285.161 360.64C285.415 361.128 284.599 362.835 283.846 363.715C283.647 362.815 283.729 361.875 284.079 361.022C284.149 360.902 284.244 360.798 284.358 360.718C284.471 360.637 284.6 360.582 284.737 360.556L284.959 360.524Z" fill="#4762FF"/>
<path d="M202.675 136.242C201.18 138.49 199.547 140.939 198.063 143.346C196.579 145.753 195.073 148.212 193.674 150.662C190.869 155.396 188.474 160.362 186.517 165.505L186.347 165.971C186.347 166.088 186.199 166.395 186.252 166.226C186.305 166.056 186.252 166.014 186.252 165.993C186.252 165.971 186.252 166.183 186.252 166.523C186.526 167.496 186.941 168.425 187.482 169.279C188.877 171.531 190.462 173.66 192.221 175.641C195.858 179.882 199.993 184.048 204.127 188.035L200.544 192.891C195.248 189.78 190.257 186.177 185.637 182.129C183.176 179.979 180.935 177.588 178.947 174.994C177.767 173.443 176.804 171.738 176.084 169.926C175.632 168.701 175.371 167.414 175.31 166.109C175.278 165.29 175.353 164.47 175.533 163.671C175.65 163.14 175.671 163.109 175.734 162.875L175.893 162.282C176.734 159.184 177.797 156.151 179.074 153.206C180.272 150.301 181.651 147.534 183.071 144.798C184.492 142.063 186.019 139.412 187.62 136.815C189.221 134.217 190.8 131.694 192.741 129.107L202.675 136.242Z" fill="#FF8B7B"/>
<path d="M193.334 124.686C185.202 127.188 180.092 144.905 180.092 145.095L196.144 157.447C196.144 157.447 201.021 147.905 204.88 138.766C209.132 128.821 202.23 121.95 193.334 124.686Z" fill="#4762FF"/>
<path d="M206.184 132.722C206.184 132.5 206.184 132.267 206.184 132.044C202.531 129.216 198.683 126.647 194.67 124.357L193.896 124.537C198.198 126.944 202.306 129.681 206.184 132.722Z" fill="white"/>
<path d="M187.662 129.149C191.903 131.015 198.031 135.193 204.35 140.176C204.414 140.006 204.488 139.847 204.562 139.678C198.317 134.769 192.221 130.634 188.012 128.725L187.662 129.149Z" fill="white"/>
<path d="M201.36 146.845L201.583 146.357C195.158 141.204 188.775 136.815 184.269 134.599C184.184 134.758 184.11 134.917 184.025 135.066C188.521 137.165 194.925 141.618 201.36 146.845Z" fill="white"/>
<path d="M198.265 153.312L198.498 152.835C193.197 148.369 187.522 144.368 181.534 140.876C181.471 141.045 181.407 141.204 181.354 141.363C187.321 144.857 192.979 148.854 198.265 153.312Z" fill="white"/>
<path d="M201.636 187.377L209.789 186.943L206.015 196.485C206.015 196.485 198.986 195.319 199.187 191.523L201.636 187.377Z" fill="#FF8B7B"/>
<path d="M215.313 190.749L211.824 198.499L206.014 196.495L209.789 186.943L215.313 190.749Z" fill="#FF8B7B"/>
<path d="M325.64 23.4124C324.256 21.7825 322.65 20.3549 320.869 19.1715L321.463 18.2915C323.317 19.5191 324.994 20.996 326.446 22.6809L325.64 23.4124Z" fill="#004681"/>
<path d="M331.387 45.9318L330.326 45.6243C331.249 42.6167 331.554 39.4535 331.222 36.3251C330.891 33.1966 329.93 30.1676 328.397 27.4202L329.319 26.9113C330.928 29.7785 331.941 32.9416 332.296 36.2103C332.652 39.479 332.342 42.7858 331.387 45.9318Z" fill="#004681"/>
<path d="M306.132 70.9744C305.6 70.9749 305.071 70.8963 304.563 70.7412L292.9 67.2106C291.681 66.854 290.63 66.0712 289.939 65.0048C289.248 63.9384 288.963 62.6593 289.136 61.4006L289.327 59.9586C289.894 55.211 289.327 50.3967 287.673 45.9106C286.074 41.4221 286.033 36.5256 287.557 32.0109C289.347 26.8699 293.006 22.5905 297.807 20.0233C302.608 17.456 308.199 16.7886 313.469 18.1537C316.229 18.9077 318.81 20.2075 321.06 21.9763C323.309 23.7451 325.181 25.9469 326.565 28.4516C327.949 30.9563 328.816 33.7131 329.117 36.5589C329.417 39.4047 329.143 42.2817 328.312 45.02C327.027 49.2934 324.431 53.0545 320.89 55.7707C316.972 58.6446 313.772 62.3858 311.539 66.7017L310.903 67.9846C310.469 68.8808 309.791 69.6365 308.947 70.1653C308.103 70.6941 307.128 70.9745 306.132 70.9744ZM308.019 18.493C303.74 18.4999 299.568 19.836 296.081 22.3165C292.594 24.7969 289.964 28.2993 288.553 32.3396C287.103 36.6298 287.14 41.2837 288.659 45.5501C290.368 50.1926 290.953 55.1738 290.366 60.0859L290.175 61.5172C290.044 62.5268 290.276 63.5501 290.83 64.4045C291.383 65.259 292.222 65.889 293.197 66.1822L304.86 69.7128C305.833 70.0203 306.884 69.9666 307.821 69.5616C308.758 69.1565 309.517 68.4272 309.959 67.5075L310.648 66.267C312.963 61.8114 316.267 57.9451 320.307 54.9649C323.677 52.3898 326.148 48.8167 327.368 44.7549C328.157 42.1503 328.415 39.414 328.127 36.7079C327.839 34.0018 327.011 31.3809 325.692 29.0005C324.374 26.62 322.591 24.5282 320.449 22.8491C318.308 21.1699 315.851 19.9374 313.225 19.2245C311.53 18.7478 309.779 18.5017 308.019 18.493Z" fill="#004681"/>
<path d="M306.27 75.6289C306.34 75.3978 306.364 75.1551 306.34 74.9148C306.316 74.6744 306.245 74.4412 306.13 74.2284C306.016 74.0156 305.861 73.8275 305.674 73.6748C305.487 73.5222 305.271 73.408 305.04 73.3388L291.055 69.0979C290.588 68.9573 290.085 69.0079 289.655 69.2385C289.226 69.4692 288.906 69.861 288.765 70.3278C288.625 70.7945 288.675 71.298 288.906 71.7275C289.136 72.157 289.528 72.4773 289.995 72.6179L290.345 72.7345C289.992 72.9398 289.728 73.2684 289.603 73.6569L289.497 74.0174C289.425 74.2261 289.396 74.447 289.411 74.6671C289.426 74.8871 289.485 75.1021 289.583 75.2994C289.682 75.4967 289.819 75.6724 289.986 75.8164C290.153 75.9603 290.347 76.0696 290.557 76.1378L301.509 79.4457C301.924 79.5734 302.372 79.5341 302.758 79.336C303.145 79.138 303.438 78.7969 303.577 78.3855L303.683 78.025C303.798 77.63 303.76 77.2059 303.577 76.8376L303.937 76.9436C304.176 77.0189 304.429 77.0444 304.678 77.0183C304.928 76.9922 305.17 76.9151 305.388 76.7919C305.607 76.6686 305.798 76.5018 305.95 76.3018C306.101 76.1018 306.21 75.8727 306.27 75.6289Z" fill="#004681"/>
<path d="M303.986 35.9867C303.995 35.8955 304.034 35.8099 304.097 35.7437C304.161 35.6775 304.244 35.6346 304.335 35.6219C305.315 35.5078 306.307 35.5991 307.249 35.8901C308.877 36.365 310.251 37.4659 311.07 38.9525C311.888 40.4392 312.086 42.1908 311.618 43.8251C310.956 46.0933 309.094 46.8466 307.594 46.4173C306.968 46.2487 306.39 45.9349 305.907 45.5011C305.424 45.0673 305.051 44.5257 304.816 43.9202C304.628 44.2388 304.362 44.504 304.042 44.6903C303.78 44.8413 303.489 44.9373 303.189 44.9723C302.888 45.0072 302.584 44.9805 302.294 44.8938C299.967 44.1953 298.185 41.4205 299.378 37.3342C300.644 32.9624 304.599 30.7874 308.997 32.0579C314.273 33.5818 317.056 38.9012 315.436 44.4688C314.098 49.1016 309.862 51.5235 305.364 50.2205C303.784 49.823 302.333 49.0252 301.152 47.9036C301.08 47.8342 301.037 47.7415 301.028 47.6423C301.02 47.5431 301.047 47.4442 301.106 47.3635L301.8 46.4287C301.834 46.3802 301.879 46.3403 301.931 46.3121C301.983 46.2839 302.041 46.2682 302.1 46.2662C302.158 46.2606 302.218 46.2684 302.273 46.2888C302.328 46.3092 302.378 46.3418 302.419 46.3842C303.332 47.248 304.448 47.868 305.663 48.1871C309.162 49.1989 312.239 47.3943 313.309 43.6978C314.585 39.2354 312.641 35.1647 308.634 34.0262C305.234 33.0376 302.516 34.613 301.505 38.1052C301.047 39.3766 301.099 40.7755 301.652 42.0069C301.74 42.1934 301.865 42.3602 302.019 42.4975C302.173 42.6348 302.353 42.7398 302.548 42.8064C302.606 42.8282 302.669 42.8353 302.73 42.8272C302.792 42.8192 302.851 42.7961 302.901 42.76C303.093 42.6255 303.425 42.1762 303.557 40.6501L303.986 35.9867ZM306.952 38.0308C306.696 37.9589 306.434 37.9083 306.169 37.8798L305.919 40.3985C305.782 41.8568 306.483 43.7933 307.633 44.1257C308.783 44.4582 309.104 43.5644 309.263 43.0196C309.889 40.8573 308.83 38.5754 306.947 38.0271L306.952 38.0308Z" fill="#004681"/>
<path opacity="0.7" d="M303.986 35.9867C303.995 35.8955 304.034 35.8099 304.097 35.7437C304.161 35.6775 304.244 35.6346 304.335 35.6219C305.315 35.5078 306.307 35.5991 307.249 35.8901C308.877 36.365 310.251 37.4659 311.07 38.9525C311.888 40.4392 312.086 42.1908 311.618 43.8251C310.956 46.0933 309.094 46.8466 307.594 46.4173C306.968 46.2487 306.39 45.9349 305.907 45.5011C305.424 45.0673 305.051 44.5257 304.816 43.9202C304.628 44.2388 304.362 44.504 304.042 44.6903C303.78 44.8413 303.489 44.9373 303.189 44.9723C302.888 45.0072 302.584 44.9805 302.294 44.8938C299.967 44.1953 298.185 41.4205 299.378 37.3342C300.644 32.9624 304.599 30.7874 308.997 32.0579C314.273 33.5818 317.056 38.9012 315.436 44.4688C314.098 49.1016 309.862 51.5235 305.364 50.2205C303.784 49.823 302.333 49.0252 301.152 47.9036C301.08 47.8342 301.037 47.7415 301.028 47.6423C301.02 47.5431 301.047 47.4442 301.106 47.3635L301.8 46.4287C301.834 46.3802 301.879 46.3403 301.931 46.3121C301.983 46.2839 302.041 46.2682 302.1 46.2662C302.158 46.2606 302.218 46.2684 302.273 46.2888C302.328 46.3092 302.378 46.3418 302.419 46.3842C303.332 47.248 304.448 47.868 305.663 48.1871C309.162 49.1989 312.239 47.3943 313.309 43.6978C314.585 39.2354 312.641 35.1647 308.634 34.0262C305.234 33.0376 302.516 34.613 301.505 38.1052C301.047 39.3766 301.099 40.7755 301.652 42.0069C301.74 42.1934 301.865 42.3602 302.019 42.4975C302.173 42.6348 302.353 42.7398 302.548 42.8064C302.606 42.8282 302.669 42.8353 302.73 42.8272C302.792 42.8192 302.851 42.7961 302.901 42.76C303.093 42.6255 303.425 42.1762 303.557 40.6501L303.986 35.9867ZM306.952 38.0308C306.696 37.9589 306.434 37.9083 306.169 37.8798L305.919 40.3985C305.782 41.8568 306.483 43.7933 307.633 44.1257C308.783 44.4582 309.104 43.5644 309.263 43.0196C309.889 40.8573 308.83 38.5754 306.947 38.0271L306.952 38.0308Z" fill="white"/>
<path d="M331.079 110.489C330.301 110.492 329.532 110.323 328.827 109.995C328.121 109.667 327.497 109.188 326.997 108.592L319.13 99.2933C318.303 98.3316 317.849 97.1053 317.849 95.837C317.849 94.5686 318.303 93.3423 319.13 92.3806L320.063 91.3204C323.113 87.6286 325.249 83.2697 326.298 78.5976C327.378 73.9606 329.993 69.8247 333.719 66.8608C338.01 63.5114 343.404 61.8985 348.829 62.3424C354.254 62.7863 359.314 65.2546 363.003 69.2569C365.668 72.2216 367.452 75.8724 368.152 79.7971C368.853 83.7218 368.442 87.7642 366.967 91.4679C365.491 95.1716 363.01 98.3891 359.803 100.757C356.596 103.126 352.791 104.55 348.817 104.87C343.967 105.163 339.251 106.571 335.034 108.984L333.793 109.726C332.974 110.221 332.036 110.485 331.079 110.489ZM346.983 63.2878C342.426 63.2646 337.996 64.7868 334.417 67.606C330.837 70.4251 328.318 74.3746 327.273 78.8096C326.191 83.6377 323.978 88.1399 320.816 91.9459L319.883 93.0592C319.227 93.836 318.867 94.82 318.867 95.837C318.867 96.8539 319.227 97.8379 319.883 98.6148L327.782 107.913C328.434 108.697 329.348 109.22 330.354 109.386C331.361 109.551 332.394 109.348 333.263 108.814L334.504 108.083C338.86 105.592 343.733 104.141 348.743 103.842C352.972 103.511 356.989 101.848 360.214 99.0919C363.404 96.4036 365.687 92.7965 366.752 88.7628C367.816 84.7291 367.61 80.4653 366.162 76.553C364.714 72.6407 362.094 69.2705 358.659 66.9022C355.225 64.5338 351.144 63.2828 346.972 63.3196L346.983 63.2878Z" fill="#004681"/>
<path d="M325.778 113.628C326.15 113.311 326.381 112.86 326.421 112.373C326.461 111.886 326.306 111.403 325.99 111.03L316.532 99.8976C316.212 99.525 315.756 99.295 315.266 99.2583C314.776 99.2215 314.291 99.3809 313.919 99.7014C313.546 100.022 313.316 100.477 313.28 100.968C313.243 101.458 313.402 101.942 313.723 102.315L313.967 102.601C313.554 102.579 313.148 102.716 312.832 102.983L312.546 103.227C312.38 103.367 312.244 103.539 312.144 103.732C312.045 103.926 311.985 104.137 311.967 104.353C311.949 104.57 311.974 104.788 312.041 104.995C312.108 105.202 312.214 105.394 312.355 105.559L319.777 114.274C319.917 114.44 320.089 114.577 320.282 114.676C320.476 114.775 320.687 114.835 320.903 114.853C321.12 114.871 321.338 114.846 321.545 114.779C321.752 114.713 321.944 114.606 322.109 114.465L322.395 114.221C322.707 113.951 322.905 113.572 322.947 113.161L323.191 113.447C323.511 113.812 323.963 114.035 324.447 114.069C324.931 114.102 325.409 113.944 325.778 113.628Z" fill="#004681"/>
<path d="M343.552 76.1201L347.457 79.9151C347.602 80.0573 347.688 80.2561 347.697 80.4676C347.706 80.6791 347.637 80.8861 347.504 81.0432L347.224 81.3837L347.324 81.4303C351.023 83.2928 354.959 80.6557 354.959 80.6557C354.959 80.6557 356.062 81.2557 355.584 82.3317C354.683 84.2238 353.06 83.8553 351.88 85.3538L353.5 86.7543C354.011 87.2072 354.451 87.7455 354.803 88.3488L355.15 88.9334C355.438 89.42 355.539 90.0092 355.43 90.5759C355.321 91.1426 355.011 91.6423 354.566 91.9689L351.45 94.2889C350.514 94.9753 349.375 95.2625 348.256 95.0946C347.137 94.9267 346.119 94.3157 345.399 93.3809C344.17 91.7813 342.252 89.2888 341.928 88.8429L341.464 88.3057L341.261 88.5468C341.129 88.7037 340.943 88.7977 340.747 88.8081C340.55 88.8186 340.358 88.7447 340.213 88.6026L336.274 84.8139C336.129 84.6716 336.042 84.4737 336.032 84.2627C336.022 84.0517 336.089 83.8445 336.22 83.6856L342.481 76.2262C342.545 76.1424 342.623 76.073 342.711 76.0221C342.8 75.9712 342.897 75.9399 342.997 75.9301C343.096 75.9202 343.197 75.9319 343.292 75.9645C343.388 75.9972 343.476 76.0501 343.552 76.1201Z" fill="#004681"/>
<path d="M247.883 70.19C246.833 70.1879 245.807 69.8773 244.932 69.2967C244.057 68.7161 243.373 67.8911 242.963 66.9245L242.401 65.5886C240.5 61.2109 237.594 57.3426 233.919 54.2971C230.267 51.2391 227.756 47.0354 226.795 42.3695C225.741 37.0288 226.735 31.4872 229.58 26.8458C232.424 22.2043 236.91 18.8025 242.147 17.3162C244.91 16.5659 247.796 16.3776 250.633 16.7624C253.47 17.1472 256.201 18.0973 258.665 19.5565C261.128 21.0156 263.274 22.9541 264.975 25.2573C266.676 27.5605 267.898 30.1815 268.568 32.9652C269.621 37.3075 269.276 41.8716 267.582 46.0061C265.667 50.4684 264.804 55.3111 265.058 60.1602L265.154 61.6021C265.252 62.8677 264.893 64.1266 264.142 65.15C263.391 66.1734 262.298 66.8933 261.061 67.1789L249.155 70.0415C248.738 70.1379 248.311 70.1877 247.883 70.19ZM247.745 17.6237C244.716 17.6195 241.724 18.2914 238.987 19.5904C236.251 20.8894 233.839 22.7828 231.927 25.1324C230.015 27.4821 228.652 30.2288 227.936 33.1723C227.221 36.1158 227.171 39.1818 227.791 42.1468C228.702 46.5829 231.086 50.5808 234.555 53.4913C238.373 56.6297 241.396 60.6258 243.377 65.1539L243.939 66.4898C244.328 67.4322 245.044 68.2028 245.955 68.6604C246.866 69.118 247.912 69.2319 248.9 68.9813L260.817 66.1505C261.812 65.9219 262.69 65.3427 263.292 64.519C263.893 63.6953 264.178 62.6823 264.094 61.6657L263.998 60.2344C263.732 55.2207 264.629 50.2135 266.617 45.6032C267.866 42.5178 268.339 39.1731 267.994 35.8625C267.649 32.5518 266.497 29.3763 264.64 26.6144C262.782 23.8524 260.275 21.5884 257.339 20.0209C254.402 18.4534 251.126 17.6303 247.798 17.6237H247.745Z" fill="#004681"/>
<path d="M264.952 70.508C264.896 70.2732 264.794 70.0517 264.653 69.8563C264.511 69.661 264.332 69.4955 264.126 69.3694C263.92 69.2433 263.691 69.1591 263.453 69.1216C263.214 69.0841 262.971 69.0941 262.736 69.1509L248.529 72.6285C248.075 72.7615 247.689 73.0641 247.452 73.4737C247.214 73.8833 247.143 74.3684 247.254 74.8288C247.364 75.2892 247.647 75.6895 248.044 75.947C248.442 76.2045 248.923 76.2994 249.388 76.212L249.759 76.1272C249.551 76.4821 249.486 76.9032 249.579 77.3041L249.664 77.6752C249.772 78.1003 250.042 78.4661 250.417 78.694C250.791 78.922 251.24 78.994 251.667 78.8944L262.789 76.212C263.215 76.109 263.583 75.8412 263.811 75.4676C264.04 75.0939 264.111 74.6448 264.009 74.2188L263.924 73.8583C263.823 73.4587 263.578 73.1109 263.235 72.8829L263.595 72.7981C263.837 72.7414 264.065 72.6364 264.266 72.4894C264.466 72.3423 264.635 72.1562 264.762 71.9423C264.889 71.7284 264.971 71.4911 265.003 71.2446C265.036 70.9981 265.019 70.7476 264.952 70.508Z" fill="#004681"/>
<path d="M240.088 35.5365L253.757 32.338C254.416 32.1867 255.099 32.2887 255.657 32.6218C256.214 32.9549 256.602 33.4921 256.734 34.1163L258.387 42.0824C258.514 42.7075 258.375 43.3671 258 43.9167C257.625 44.4664 257.045 44.8614 256.387 45.0153L242.715 48.2072C242.056 48.3586 241.372 48.2571 240.814 47.9249C240.255 47.5926 239.866 47.0563 239.731 46.4323L238.092 38.4758C237.962 37.8503 238.1 37.1895 238.474 36.6384C238.849 36.0873 239.429 35.691 240.088 35.5365ZM251.1 43.0835L249.716 36.4201L244.311 41.1713L251.1 43.0835Z" fill="#004681"/>
<path opacity="0.4" d="M240.088 35.5365L253.757 32.338C254.416 32.1867 255.099 32.2887 255.657 32.6218C256.214 32.9549 256.602 33.4921 256.734 34.1163L258.387 42.0824C258.514 42.7075 258.375 43.3671 258 43.9167C257.625 44.4664 257.045 44.8614 256.387 45.0153L242.715 48.2072C242.056 48.3586 241.372 48.2571 240.814 47.9249C240.255 47.5926 239.866 47.0563 239.731 46.4323L238.092 38.4758C237.962 37.8503 238.1 37.1895 238.474 36.6384C238.849 36.0873 239.429 35.691 240.088 35.5365ZM251.1 43.0835L249.716 36.4201L244.311 41.1713L251.1 43.0835Z" fill="black"/>
</svg>
