<svg width="59" height="59" viewBox="0 0 59 59" fill="none" xmlns="http://www.w3.org/2000/svg">
<g filter="url(#filter0_d_23_441)">
<circle cx="29.6899" cy="26.6899" r="24.6899" fill="url(#paint0_linear_23_441)" shape-rendering="crispEdges"/>
<circle cx="29.6899" cy="26.6899" r="23.7499" stroke="#040405" stroke-width="1.88" shape-rendering="crispEdges"/>
</g>
<path d="M21.4616 19.1796C21.4616 18.9053 21.553 18.6767 21.7359 18.4938C21.9188 18.3109 22.1474 18.2195 22.4217 18.2195L26.125 18.2195C26.3384 18.2195 26.5252 18.2881 26.6855 18.4252C26.8458 18.5624 26.9486 18.7376 26.9937 18.951L27.6337 22.1056C27.6642 22.319 27.645 22.5363 27.5761 22.7576C27.5073 22.9789 27.4045 23.1578 27.268 23.2944L25.1192 25.4432C25.8202 26.6014 26.6508 27.6606 27.6109 28.6207C28.571 29.5808 29.5997 30.3809 30.697 31.021L32.9372 28.8264C33.0744 28.6893 33.2307 28.6015 33.4063 28.5631C33.5819 28.5247 33.776 28.521 33.9888 28.5521L37.1891 29.1465C37.4025 29.1769 37.5778 29.276 37.7149 29.4436C37.8521 29.6113 37.9207 29.8018 37.9207 30.0151V33.7184C37.9207 33.9927 37.8292 34.2213 37.6463 34.4042C37.4635 34.5871 37.2349 34.6785 36.9605 34.6785C34.9946 34.6785 33.078 34.2402 31.2108 33.3636C29.3437 32.487 27.6901 31.3288 26.2503 29.889C24.8104 28.4491 23.6522 26.7956 22.7756 24.9284C21.899 23.0612 21.461 21.1449 21.4616 19.1796Z" fill="#040405"/>
<defs>
<filter id="filter0_d_23_441" x="0.885021" y="0.62834" width="57.6096" height="57.6097" filterUnits="userSpaceOnUse" color-interpolation-filters="sRGB">
<feFlood flood-opacity="0" result="BackgroundImageFix"/>
<feColorMatrix in="SourceAlpha" type="matrix" values="0 0 0 0 0 0 0 0 0 0 0 0 0 0 0 0 0 0 127 0" result="hardAlpha"/>
<feMorphology radius="1.37166" operator="dilate" in="SourceAlpha" result="effect1_dropShadow_23_441"/>
<feOffset dy="2.74332"/>
<feGaussianBlur stdDeviation="1.37166"/>
<feComposite in2="hardAlpha" operator="out"/>
<feColorMatrix type="matrix" values="0 0 0 0 0.7875 0 0 0 0 0.7875 0 0 0 0 0.7875 0 0 0 0.25 0"/>
<feBlend mode="normal" in2="BackgroundImageFix" result="effect1_dropShadow_23_441"/>
<feBlend mode="normal" in="SourceGraphic" in2="effect1_dropShadow_23_441" result="shape"/>
</filter>
<linearGradient id="paint0_linear_23_441" x1="39.2893" y1="-1.89641" x2="-11.916" y2="95.0279" gradientUnits="userSpaceOnUse">
<stop stop-color="white"/>
<stop offset="1" stop-color="white" stop-opacity="0.37"/>
</linearGradient>
</defs>
</svg>
