<svg width="49" height="48" viewBox="0 0 49 48" fill="none" xmlns="http://www.w3.org/2000/svg">
<rect x="1.32545" y="1.20143" width="45.8579" height="45.8579" rx="22.929" fill="white"/>
<g clip-path="url(#clip0_23_474)">
<path d="M19.6646 20.7714V31.8367H15.9957V20.7714H19.6646ZM19.8988 17.3562C19.9118 17.9026 19.7296 18.358 19.3523 18.7222C18.962 19.0865 18.4546 19.2687 17.8301 19.2687H17.8106C17.1991 19.2687 16.7112 19.0865 16.347 18.7222C15.9697 18.358 15.781 17.9026 15.781 17.3562C15.781 16.8097 15.9697 16.3544 16.347 15.9901C16.7373 15.6388 17.2382 15.4632 17.8497 15.4632C18.4741 15.4632 18.9685 15.6388 19.3328 15.9901C19.7101 16.3544 19.8988 16.8097 19.8988 17.3562ZM32.9156 25.4941V31.8367H29.2467V25.9235C29.2467 25.1428 29.0971 24.5314 28.7979 24.089C28.4856 23.6467 28.0107 23.4255 27.3732 23.4255C26.9048 23.4255 26.5145 23.5491 26.2023 23.7963C25.89 24.0565 25.6559 24.3752 25.4997 24.7525C25.4087 24.9737 25.3631 25.2795 25.3631 25.6698V31.8367H21.6942C21.7202 28.8703 21.7332 26.4634 21.7332 24.6159C21.7332 22.7685 21.7267 21.6691 21.7137 21.3178L21.6942 20.7714H25.3631V22.3912H25.3436C25.4997 22.144 25.6559 21.9358 25.812 21.7667C25.9681 21.5845 26.1763 21.3894 26.4365 21.1812C26.6967 20.973 27.0219 20.8104 27.4123 20.6933C27.7896 20.5762 28.2124 20.5177 28.6808 20.5177C29.9558 20.5177 30.9771 20.9405 31.7447 21.7862C32.5253 22.6319 32.9156 23.8678 32.9156 25.4941Z" fill="#0077B5"/>
</g>
<rect x="1.32545" y="1.20143" width="45.8579" height="45.8579" rx="22.929" stroke="#0077B5" stroke-width="1.88137"/>
<defs>
<clipPath id="clip0_23_474">
<rect width="17.1417" height="19.9839" fill="white" transform="matrix(1 0 0 -1 15.7778 33.6122)"/>
</clipPath>
</defs>
</svg>
