<svg width="49" height="48" viewBox="0 0 49 48" fill="none" xmlns="http://www.w3.org/2000/svg">
<rect x="1.59767" y="1.20143" width="45.8579" height="45.8579" rx="22.929" fill="white"/>
<path d="M20.912 24.2041C20.9121 23.4148 21.1462 22.6433 21.5848 21.9871C22.0233 21.3309 22.6467 20.8194 23.3759 20.5175C24.1052 20.2155 24.9076 20.1365 25.6817 20.2906C26.4558 20.4447 27.1669 20.8248 27.7249 21.383C28.283 21.9412 28.663 22.6523 28.8169 23.4264C28.9708 24.2005 28.8916 25.0029 28.5895 25.732C28.2873 26.4612 27.7757 27.0844 27.1194 27.5228C26.463 27.9612 25.6914 28.1951 24.9021 28.195C23.8438 28.1948 22.8288 27.7743 22.0805 27.0258C21.3323 26.2774 20.9119 25.2624 20.912 24.2041ZM18.7544 24.2041C18.7544 25.4199 19.115 26.6085 19.7905 27.6194C20.466 28.6304 21.4261 29.4183 22.5495 29.8836C23.6728 30.3489 24.9089 30.4706 26.1015 30.2334C27.294 29.9962 28.3894 29.4107 29.2492 28.551C30.1089 27.6913 30.6945 26.5959 30.9317 25.4034C31.1689 24.2109 31.0471 22.9749 30.5818 21.8516C30.1165 20.7283 29.3286 19.7682 28.3176 19.0927C27.3066 18.4172 26.118 18.0566 24.9021 18.0566C24.0948 18.0566 23.2953 18.2156 22.5494 18.5245C21.8035 18.8334 21.1258 19.2862 20.5549 19.8571C19.9841 20.4279 19.5312 21.1057 19.2223 21.8515C18.9134 22.5974 18.7544 23.3968 18.7544 24.2041ZM29.8565 17.8131C29.8563 18.0972 29.9405 18.375 30.0982 18.6113C30.256 18.8476 30.4803 19.0318 30.7427 19.1407C31.0052 19.2495 31.294 19.2781 31.5727 19.2228C31.8514 19.1675 32.1075 19.0307 32.3085 18.8299C32.5095 18.6291 32.6464 18.3732 32.702 18.0946C32.7575 17.8159 32.7292 17.5271 32.6206 17.2645C32.5119 17.002 32.3279 16.7776 32.0917 16.6196C31.8556 16.4616 31.5778 16.3773 31.2937 16.3771C30.9129 16.3773 30.5476 16.5286 30.2783 16.7979C30.0089 17.0671 29.8574 17.4322 29.8571 17.8131M20.0659 33.9491C19.3067 33.9407 18.5546 33.8018 17.8426 33.5384C17.3262 33.3393 16.8572 33.0344 16.4658 32.6432C16.0744 32.2519 15.7692 31.7831 15.57 31.2668C15.3064 30.5548 15.1675 29.8027 15.1593 29.0436C15.1011 27.7817 15.0897 27.4026 15.0897 24.2057C15.0897 21.0087 15.1024 20.6306 15.1593 19.3675C15.1685 18.6084 15.3074 17.8565 15.57 17.1442C15.769 16.6277 16.0741 16.1586 16.4655 15.7672C16.8569 15.3758 17.326 15.0707 17.8426 14.8717C18.5546 14.6082 19.3067 14.4692 20.0659 14.461C21.3278 14.4029 21.7069 14.3915 24.9027 14.3915C28.0985 14.3915 28.478 14.4038 29.7411 14.4613C30.5002 14.4705 31.2522 14.6094 31.9645 14.872C32.481 15.0711 32.9501 15.3761 33.3415 15.7675C33.733 16.1589 34.038 16.628 34.2371 17.1445C34.5006 17.8565 34.6396 18.6086 34.6478 19.3678C34.7059 20.6315 34.7173 21.0087 34.7173 24.206C34.7173 27.4032 34.7056 27.7811 34.6478 29.0442C34.6389 29.8033 34.5 30.5553 34.2371 31.2674C34.0378 31.7837 33.7327 32.2526 33.3413 32.6438C32.9498 33.035 32.4809 33.34 31.9645 33.539C31.2524 33.8025 30.5003 33.9415 29.7411 33.9497C28.4792 34.0079 28.1001 34.0192 24.9027 34.0192C21.7053 34.0192 21.3275 34.0075 20.0659 33.9497M19.9667 12.3054C18.9733 12.3249 17.9904 12.5129 17.06 12.8614C16.2646 13.1689 15.5422 13.6393 14.9392 14.2423C14.3362 14.8452 13.8659 15.5676 13.5583 16.3629C13.2099 17.2934 13.0219 18.2762 13.0023 19.2695C12.9432 20.5459 12.9299 20.9541 12.9299 24.2054C12.9299 27.4566 12.9435 27.8645 13.0023 29.1412C13.0219 30.1345 13.2099 31.1174 13.5583 32.0478C13.8659 32.8431 14.3362 33.5655 14.9393 34.1684C15.5423 34.7714 16.2646 35.2418 17.06 35.5493C17.9905 35.8976 18.9733 36.0856 19.9667 36.1053C21.2438 36.1635 21.6513 36.1777 24.9027 36.1777C28.1541 36.1777 28.562 36.1641 29.8388 36.1053C30.8322 36.0857 31.815 35.8977 32.7455 35.5493C33.5409 35.2418 34.2632 34.7714 34.8662 34.1684C35.4692 33.5655 35.9396 32.8431 36.2471 32.0478C36.596 31.1175 36.7841 30.1346 36.8032 29.1412C36.8613 27.8639 36.8746 27.4566 36.8746 24.2054C36.8746 20.9541 36.861 20.5462 36.8032 19.2695C36.7837 18.2762 36.5956 17.2933 36.2471 16.3629C35.9396 15.5677 35.4694 14.8455 34.8665 14.2425C34.2637 13.6396 33.5416 13.1692 32.7464 12.8614C31.816 12.5127 30.8331 12.3247 29.8397 12.3054C28.563 12.2469 28.1551 12.233 24.9043 12.233C21.6535 12.233 21.2447 12.2466 19.9673 12.3054" fill="#C92C6D"/>
<rect x="1.59767" y="1.20143" width="45.8579" height="45.8579" rx="22.929" stroke="#C92C6D" stroke-width="1.88137"/>
</svg>
