<svg width="12" height="18" viewBox="0 0 12 18" fill="none" xmlns="http://www.w3.org/2000/svg">
<path d="M1.00001 15.6667H11C11.4583 15.6667 11.8333 16.0417 11.8333 16.5001C11.8333 16.9584 11.4583 17.3334 11 17.3334H1.00001C0.541672 17.3334 0.166672 16.9584 0.166672 16.5001C0.166672 16.0417 0.541672 15.6667 1.00001 15.6667ZM6 4.83341C5.08334 4.83341 4.33334 5.58341 4.33334 6.50008C4.33334 7.41675 5.08334 8.16675 6 8.16675C6.91667 8.16675 7.66667 7.41675 7.66667 6.50008C7.66667 5.58341 6.91667 4.83341 6 4.83341ZM6 0.666748C8.72501 0.666748 11.8333 2.71675 11.8333 6.62508C11.8333 9.10841 10.0583 11.7251 6.50834 14.4501C6.20834 14.6834 5.79167 14.6834 5.49167 14.4501C1.94167 11.7167 0.166672 9.10841 0.166672 6.62508C0.166672 2.71675 3.27501 0.666748 6 0.666748Z" fill="white"/>
</svg>
