<svg width="59" height="58" viewBox="0 0 59 58" fill="none" xmlns="http://www.w3.org/2000/svg">
<g filter="url(#filter0_d_23_451)">
<circle cx="29.6044" cy="26.2089" r="24.6899" fill="url(#paint0_linear_23_451)" shape-rendering="crispEdges"/>
<circle cx="29.6044" cy="26.2089" r="23.7499" stroke="#4762FF" stroke-width="1.88" shape-rendering="crispEdges"/>
</g>
<path d="M29.2281 39.5016C29.4271 39.5004 29.6198 39.4279 29.7749 39.2958C30.11 38.9778 38.9289 31.439 38.9289 23.6009C38.9289 20.8721 37.9069 18.2551 36.0876 16.3256C34.2684 14.3961 31.801 13.3121 29.2281 13.3121C26.6553 13.3121 24.1879 14.3961 22.3686 16.3256C20.5494 18.2551 19.5273 20.8721 19.5273 23.6009C19.5273 31.439 28.3462 38.9778 28.6814 39.2958C28.8365 39.4279 29.0292 39.5004 29.2281 39.5016ZM21.2911 23.6009C21.2911 21.3682 22.1273 19.2271 23.6158 17.6484C25.1043 16.0697 27.1231 15.1828 29.2281 15.1828C31.3332 15.1828 33.352 16.0697 34.8405 17.6484C36.3289 19.2271 37.1652 21.3682 37.1652 23.6009C37.1652 29.4935 31.1066 35.5825 29.2281 37.341C27.3497 35.5825 21.2911 29.4935 21.2911 23.6009Z" fill="#4762FF"/>
<path d="M33.6392 23.6011C33.6392 22.6761 33.3806 21.7719 32.896 21.0028C32.4115 20.2336 31.7228 19.6342 30.917 19.2802C30.1113 18.9262 29.2246 18.8336 28.3692 19.0141C27.5138 19.1945 26.7281 19.64 26.1114 20.294C25.4947 20.9481 25.0747 21.7815 24.9046 22.6887C24.7344 23.5959 24.8217 24.5363 25.1555 25.3909C25.4893 26.2455 26.0545 26.976 26.7796 27.4899C27.5048 28.0038 28.3574 28.2781 29.2295 28.2781C30.399 28.2781 31.5206 27.7853 32.3476 26.9082C33.1746 26.0311 33.6392 24.8415 33.6392 23.6011ZM26.5837 23.6011C26.5837 23.0461 26.7389 22.5036 27.0296 22.0421C27.3203 21.5806 27.7335 21.221 28.217 21.0086C28.7005 20.7962 29.2324 20.7406 29.7457 20.8489C30.2589 20.9572 30.7304 21.2244 31.1004 21.6169C31.4704 22.0093 31.7224 22.5093 31.8245 23.0537C31.9266 23.598 31.8742 24.1622 31.6739 24.675C31.4737 25.1878 31.1345 25.626 30.6994 25.9344C30.2643 26.2427 29.7528 26.4073 29.2295 26.4073C28.5278 26.4073 27.8548 26.1116 27.3586 25.5854C26.8625 25.0591 26.5837 24.3454 26.5837 23.6011Z" fill="#4762FF"/>
<defs>
<filter id="filter0_d_23_451" x="0.799572" y="0.147383" width="57.6096" height="57.6097" filterUnits="userSpaceOnUse" color-interpolation-filters="sRGB">
<feFlood flood-opacity="0" result="BackgroundImageFix"/>
<feColorMatrix in="SourceAlpha" type="matrix" values="0 0 0 0 0 0 0 0 0 0 0 0 0 0 0 0 0 0 127 0" result="hardAlpha"/>
<feMorphology radius="1.37166" operator="dilate" in="SourceAlpha" result="effect1_dropShadow_23_451"/>
<feOffset dy="2.74332"/>
<feGaussianBlur stdDeviation="1.37166"/>
<feComposite in2="hardAlpha" operator="out"/>
<feColorMatrix type="matrix" values="0 0 0 0 0.7875 0 0 0 0 0.7875 0 0 0 0 0.7875 0 0 0 0.25 0"/>
<feBlend mode="normal" in2="BackgroundImageFix" result="effect1_dropShadow_23_451"/>
<feBlend mode="normal" in="SourceGraphic" in2="effect1_dropShadow_23_451" result="shape"/>
</filter>
<linearGradient id="paint0_linear_23_451" x1="39.2038" y1="-2.37737" x2="-12.0015" y2="94.5469" gradientUnits="userSpaceOnUse">
<stop stop-color="white"/>
<stop offset="1" stop-color="white" stop-opacity="0.37"/>
</linearGradient>
</defs>
</svg>
