<svg width="12" height="18" viewBox="0 0 12 18" fill="none" xmlns="http://www.w3.org/2000/svg">
<path d="M0.99999 15.6667H11C11.4583 15.6667 11.8333 16.0417 11.8333 16.5001C11.8333 16.9584 11.4583 17.3334 11 17.3334H0.99999C0.541656 17.3334 0.166656 16.9584 0.166656 16.5001C0.166656 16.0417 0.541656 15.6667 0.99999 15.6667ZM5.99999 4.83341C5.08332 4.83341 4.33332 5.58341 4.33332 6.50008C4.33332 7.41675 5.08332 8.16675 5.99999 8.16675C6.91666 8.16675 7.66666 7.41675 7.66666 6.50008C7.66666 5.58341 6.91666 4.83341 5.99999 4.83341ZM5.99999 0.666748C8.72499 0.666748 11.8333 2.71675 11.8333 6.62508C11.8333 9.10841 10.0583 11.7251 6.50832 14.4501C6.20832 14.6834 5.79166 14.6834 5.49166 14.4501C1.94166 11.7167 0.166656 9.10841 0.166656 6.62508C0.166656 2.71675 3.27499 0.666748 5.99999 0.666748Z" fill="#333333" fill-opacity="0.7"/>
</svg>
