<svg width="59" height="59" viewBox="0 0 59 59" fill="none" xmlns="http://www.w3.org/2000/svg">
<g filter="url(#filter0_d_23_462)">
<circle cx="29.6899" cy="26.9301" r="24.6899" fill="url(#paint0_linear_23_462)" shape-rendering="crispEdges"/>
<circle cx="29.6899" cy="26.9301" r="23.7499" stroke="#16CB3E" stroke-width="1.88" shape-rendering="crispEdges"/>
</g>
<path d="M38.1499 18.9098C37.1388 17.8936 35.9345 17.0879 34.6072 16.5397C33.2799 15.9914 31.8561 15.7116 30.419 15.7166C24.3975 15.7166 19.4898 20.5997 19.4898 26.5911C19.4898 28.5114 19.9971 30.3769 20.9456 32.0229L19.4016 37.6631L25.1915 36.1488C26.7907 37.0157 28.5883 37.4766 30.419 37.4766C36.4405 37.4766 41.3482 32.5935 41.3482 26.6021C41.3482 23.6942 40.2122 20.9618 38.1499 18.9098ZM30.419 35.6331C28.7868 35.6331 27.1877 35.1941 25.7871 34.3711L25.4562 34.1736L22.0153 35.0734L22.9307 31.7376L22.7101 31.3974C21.8033 29.9566 21.3218 28.2911 21.3206 26.5911C21.3206 21.6093 25.4011 17.5492 30.408 17.5492C32.8342 17.5492 35.1171 18.4928 36.8265 20.2047C37.6729 21.043 38.3437 22.0401 38.7999 23.1383C39.2562 24.2365 39.4888 25.4138 39.4844 26.6021C39.5064 31.5839 35.4259 35.6331 30.419 35.6331ZM35.4038 28.8735C35.1281 28.7419 33.7827 28.0835 33.54 27.9847C33.2864 27.8969 33.1099 27.853 32.9225 28.1164C32.735 28.3907 32.2166 29.0052 32.0622 29.1808C31.9078 29.3673 31.7424 29.3893 31.4667 29.2466C31.191 29.115 30.3087 28.8187 29.272 27.8969C28.4559 27.1727 27.9156 26.2839 27.7501 26.0095C27.5957 25.7352 27.7281 25.5925 27.8714 25.4499C27.9927 25.3292 28.1471 25.1317 28.2795 24.978C28.4118 24.8244 28.467 24.7037 28.5552 24.5281C28.6434 24.3416 28.5993 24.188 28.5331 24.0563C28.467 23.9246 27.9156 22.5859 27.695 22.0372C27.4744 21.5105 27.2428 21.5763 27.0774 21.5654H26.548C26.3605 21.5654 26.0738 21.6312 25.8202 21.9055C25.5775 22.1799 24.8717 22.8383 24.8717 24.177C24.8717 25.5157 25.8532 26.8106 25.9856 26.9861C26.1179 27.1727 27.9156 29.916 30.6506 31.0901C31.3013 31.3754 31.8086 31.54 32.2056 31.6607C32.8563 31.8692 33.4518 31.8363 33.926 31.7705C34.4554 31.6937 35.5472 31.1121 35.7678 30.4756C35.9994 29.8392 35.9994 29.3015 35.9222 29.1808C35.845 29.0601 35.6796 29.0052 35.4038 28.8735Z" fill="#16CB3E"/>
<defs>
<filter id="filter0_d_23_462" x="0.885021" y="0.868575" width="57.6096" height="57.6097" filterUnits="userSpaceOnUse" color-interpolation-filters="sRGB">
<feFlood flood-opacity="0" result="BackgroundImageFix"/>
<feColorMatrix in="SourceAlpha" type="matrix" values="0 0 0 0 0 0 0 0 0 0 0 0 0 0 0 0 0 0 127 0" result="hardAlpha"/>
<feMorphology radius="1.37166" operator="dilate" in="SourceAlpha" result="effect1_dropShadow_23_462"/>
<feOffset dy="2.74332"/>
<feGaussianBlur stdDeviation="1.37166"/>
<feComposite in2="hardAlpha" operator="out"/>
<feColorMatrix type="matrix" values="0 0 0 0 0.7875 0 0 0 0 0.7875 0 0 0 0 0.7875 0 0 0 0.25 0"/>
<feBlend mode="normal" in2="BackgroundImageFix" result="effect1_dropShadow_23_462"/>
<feBlend mode="normal" in="SourceGraphic" in2="effect1_dropShadow_23_462" result="shape"/>
</filter>
<linearGradient id="paint0_linear_23_462" x1="39.2893" y1="-1.65618" x2="-11.916" y2="95.2681" gradientUnits="userSpaceOnUse">
<stop stop-color="white"/>
<stop offset="1" stop-color="white" stop-opacity="0.37"/>
</linearGradient>
</defs>
</svg>
