<svg width="18" height="18" viewBox="0 0 18 18" fill="none" xmlns="http://www.w3.org/2000/svg">
<path fill-rule="evenodd" clip-rule="evenodd" d="M12.8676 10.7016C12.6547 10.5952 11.6111 10.0823 11.4169 10.0109C11.2226 9.94015 11.0811 9.90515 10.939 10.118C10.7976 10.3294 10.3911 10.808 10.2676 10.9494C10.1433 11.0916 10.0197 11.1087 9.80757 11.003C9.59542 10.8959 8.91114 10.6723 8.10043 9.94944C7.46971 9.38658 7.04329 8.69158 6.91972 8.47873C6.79614 8.26658 6.90614 8.15158 7.01257 8.04587C7.10829 7.95087 7.22471 7.79801 7.33114 7.67444C7.43757 7.55016 7.47257 7.46159 7.54329 7.31944C7.61471 7.17801 7.579 7.05444 7.52543 6.94801C7.47257 6.84159 7.04829 5.79659 6.87114 5.37159C6.699 4.95802 6.524 5.01445 6.394 5.0073C6.26972 5.00159 6.12829 5.00016 5.98686 5.00016C5.84543 5.00016 5.61543 5.05302 5.42115 5.26587C5.22615 5.47802 4.67829 5.99159 4.67829 7.03659C4.67829 8.08087 5.43829 9.09015 5.54472 9.2323C5.65115 9.37372 7.04114 11.518 9.17043 12.4373C9.67757 12.6559 10.0726 12.7866 10.3804 12.8837C10.889 13.0459 11.3519 13.023 11.7176 12.968C12.1247 12.9073 12.9733 12.4544 13.1504 11.9587C13.3268 11.463 13.3268 11.038 13.274 10.9494C13.2211 10.8609 13.0797 10.808 12.8668 10.7016H12.8676ZM8.99471 15.9894H8.99185C7.72716 15.9897 6.4857 15.6497 5.39758 15.0051L5.14043 14.8523L2.46758 15.5537L3.18115 12.948L3.01329 12.6809C2.30625 11.5554 1.93208 10.2529 1.93401 8.92373C1.93544 5.03088 5.10258 1.86374 8.99757 1.86374C10.8833 1.86374 12.6561 2.59945 13.989 3.93373C14.6464 4.58843 15.1675 5.36699 15.522 6.22437C15.8766 7.08175 16.0577 8.00093 16.0547 8.92873C16.0533 12.8216 12.8861 15.9894 8.99471 15.9894ZM15.0033 2.92016C14.2163 2.12797 13.2799 1.49984 12.2483 1.07217C11.2168 0.6445 10.1107 0.425799 8.994 0.42874C4.31258 0.42874 0.501156 4.23945 0.499727 8.92301C0.499013 10.4202 0.889727 11.8816 1.6333 13.1694L0.428299 17.5716L4.93115 16.3901C6.17677 17.0688 7.57264 17.4244 8.99114 17.4244H8.99471C13.6761 17.4244 17.4876 13.6137 17.489 8.92944C17.4924 7.81321 17.2745 6.70737 16.8479 5.6759C16.4212 4.64442 15.7942 3.70778 15.0033 2.92016Z" fill="white"/>
</svg>
